<?xml version="1.0" standalone="no"?>
<!DOCTYPE svg PUBLIC "-//W3C//DTD SVG 1.1//EN" "http://www.w3.org/Graphics/SVG/1.1/DTD/svg11.dtd" >
<svg xmlns="http://www.w3.org/2000/svg">
<metadata></metadata>
<defs>
<font id="WebfontRegular" horiz-adv-x="618" >
<font-face units-per-em="2048" ascent="1638" descent="-410" />
<missing-glyph horiz-adv-x="1024" />
<glyph horiz-adv-x="0" />
<glyph horiz-adv-x="0" />
<glyph horiz-adv-x="0" />
<glyph unicode="&#x9;" horiz-adv-x="1024" />
<glyph unicode="&#xd;" horiz-adv-x="1024" />
<glyph unicode=" "  horiz-adv-x="1024" />
<glyph unicode="&#x09;" horiz-adv-x="1024" />
<glyph unicode="&#xa0;" horiz-adv-x="1024" />
<glyph unicode="!" horiz-adv-x="1082" d="M51 185q44 454 47.5 467t23 30.5t53.5 38.5t47.5 19t20.5 -18t-23.5 -318.5t-47.5 -327t-35 -15.5t-47 46t-33 43.5t-5 12.5t-1 22zM124.5 846q-5.5 14 13.5 229t19.5 220t3.5 9t5 7q71 84 94.5 91.5t38.5 -17.5t-38 -536q-8 -58 -26 -78.5t-41 -3.5t-43.5 41t-26 38z " />
<glyph unicode="&#x22;" horiz-adv-x="1082" d="M51 854q58 517 71 516q31 21 74 -23t44 -55.5t-20.5 -205t-35 -211.5t-57 -46t-59.5 -24t-17 49zM738.5 846q-5.5 14 13.5 229t19.5 220t3.5 9t5 7q71 84 94.5 91.5t38.5 -17.5t-38 -536q-8 -58 -26 -78.5t-41 -3.5t-43.5 41t-26 38z" />
<glyph unicode="#" />
<glyph unicode="$" horiz-adv-x="1082" d="M59 47q8 28 44.5 66.5t42.5 41t14.5 4t233.5 -0.5q221 2 234.5 -2t24 -10t39.5 -45t29 -59.5t-27.5 -27.5t-301.5 -3q-276 -4 -308.5 2t-24.5 34zM73 854q58 517 71 516q31 21 74 -23t44 -55.5t-20.5 -205t-35 -211.5t-57 -46t-59.5 -24t-17 49zM139 780.5 q3 13.5 25.5 29.5t51.5 30t255.5 13.5t241 -9t28 -21.5t24.5 -29t15.5 -25.5t3 -19t-8 -17.5t-20 -17t-44 -18.5t-260 -7t-243 8t-32 15.5t-29.5 32t-8 35.5zM192 1440.5q-4 18.5 1.5 28t28.5 10.5l596 1q27 0 33.5 -10t4 -27t-40.5 -61.5t-50.5 -48.5t-237.5 -3 q-239 -4 -248 4q-18 7 -50.5 47.5t-36.5 59zM687 185q44 454 47.5 467t23 30.5t53.5 38.5t47.5 19t20.5 -18t-23.5 -318.5t-47.5 -327t-35 -15.5t-47 46t-33 43.5t-5 12.5t-1 22z" />
<glyph unicode="%" />
<glyph unicode="&#x26;" />
<glyph unicode="'" horiz-adv-x="1082" d="M51 854q58 517 71 516q31 21 74 -23t44 -55.5t-20.5 -205t-35 -211.5t-57 -46t-59.5 -24t-17 49z" />
<glyph unicode="(" horiz-adv-x="1082" d="M51 150q53 578 65 594.5t29 4.5t46 -42.5t34 -37t7.5 -19.5t-18.5 -217.5t-26 -219.5t-13 -24.5t-41 -43.5t-49 -36.5t-24.5 4.5t-9.5 37zM102 47q8 28 44.5 66.5t42.5 41t14.5 4t233.5 -0.5q221 2 234.5 -2t24 -10t39.5 -45t29 -59.5t-27.5 -27.5t-301.5 -3 q-276 -4 -308.5 2t-24.5 34zM116 854q58 517 71 516q31 21 74 -23t44 -55.5t-20.5 -205t-35 -211.5t-57 -46t-59.5 -24t-17 49zM235 1440.5q-4 18.5 1.5 28t28.5 10.5l596 1q27 0 33.5 -10t4 -27t-40.5 -61.5t-50.5 -48.5t-237.5 -3q-239 -4 -248 4q-18 7 -50.5 47.5 t-36.5 59z" />
<glyph unicode=")" horiz-adv-x="1082" d="M59 47q8 28 44.5 66.5t42.5 41t14.5 4t233.5 -0.5q221 2 234.5 -2t24 -10t39.5 -45t29 -59.5t-27.5 -27.5t-301.5 -3q-276 -4 -308.5 2t-24.5 34zM192 1440.5q-4 18.5 1.5 28t28.5 10.5l596 1q27 0 33.5 -10t4 -27t-40.5 -61.5t-50.5 -48.5t-237.5 -3q-239 -4 -248 4 q-18 7 -50.5 47.5t-36.5 59zM687 185q44 454 47.5 467t23 30.5t53.5 38.5t47.5 19t20.5 -18t-23.5 -318.5t-47.5 -327t-35 -15.5t-47 46t-33 43.5t-5 12.5t-1 22zM760.5 846q-5.5 14 13.5 229t19.5 220t3.5 9t5 7q71 84 94.5 91.5t38.5 -17.5t-38 -536q-8 -58 -26 -78.5 t-41 -3.5t-43.5 41t-26 38z" />
<glyph unicode="*" />
<glyph unicode="+" horiz-adv-x="1082" d="M51 150q53 578 65 594.5t29 4.5t46 -42.5t34 -37t7.5 -19.5t-18.5 -217.5t-26 -219.5t-13 -24.5t-41 -43.5t-49 -36.5t-24.5 4.5t-9.5 37zM116 854q58 517 71 516q31 21 74 -23t44 -55.5t-20.5 -205t-35 -211.5t-57 -46t-59.5 -24t-17 49zM182 780.5q3 13.5 25.5 29.5 t51.5 30t255.5 13.5t241 -9t28 -21.5t24.5 -29t15.5 -25.5t3 -19t-8 -17.5t-20 -17t-44 -18.5t-260 -7t-243 8t-32 15.5t-29.5 32t-8 35.5z" />
<glyph unicode="," horiz-adv-x="1082" d="M59 47q8 28 44.5 66.5t42.5 41t14.5 4t233.5 -0.5q221 2 234.5 -2t24 -10t39.5 -45t29 -59.5t-27.5 -27.5t-301.5 -3q-276 -4 -308.5 2t-24.5 34z" />
<glyph unicode="-" horiz-adv-x="1082" d="M54 780.5q3 13.5 25.5 29.5t51.5 30t255.5 13.5t241 -9t28 -21.5t24.5 -29t15.5 -25.5t3 -19t-8 -17.5t-20 -17t-44 -18.5t-260 -7t-243 8t-32 15.5t-29.5 32t-8 35.5z" />
<glyph unicode="." horiz-adv-x="1082" d="M59 47q8 28 44.5 66.5t42.5 41t14.5 4t233.5 -0.5q221 2 234.5 -2t24 -10t39.5 -45t29 -59.5t-27.5 -27.5t-301.5 -3q-276 -4 -308.5 2t-24.5 34z" />
<glyph unicode="/" horiz-adv-x="1082" d="M51 150q53 578 65 594.5t29 4.5t46 -42.5t34 -37t7.5 -19.5t-18.5 -217.5t-26 -219.5t-13 -24.5t-41 -43.5t-49 -36.5t-24.5 4.5t-9.5 37zM182 780.5q3 13.5 25.5 29.5t51.5 30t255.5 13.5t241 -9t28 -21.5t24.5 -29t15.5 -25.5t3 -19t-8 -17.5t-20 -17t-44 -18.5 t-260 -7t-243 8t-32 15.5t-29.5 32t-8 35.5zM803.5 846q-5.5 14 13.5 229t19.5 220t3.5 9t5 7q71 84 94.5 91.5t38.5 -17.5t-38 -536q-8 -58 -26 -78.5t-41 -3.5t-43.5 41t-26 38z" />
<glyph unicode="0" horiz-adv-x="1082" d="M51 150q53 578 65 594.5t29 4.5t46 -42.5t34 -37t7.5 -19.5t-18.5 -217.5t-26 -219.5t-13 -24.5t-41 -43.5t-49 -36.5t-24.5 4.5t-9.5 37zM102 47q8 28 44.5 66.5t42.5 41t14.5 4t233.5 -0.5q221 2 234.5 -2t24 -10t39.5 -45t29 -59.5t-27.5 -27.5t-301.5 -3 q-276 -4 -308.5 2t-24.5 34zM116 854q58 517 71 516q31 21 74 -23t44 -55.5t-20.5 -205t-35 -211.5t-57 -46t-59.5 -24t-17 49zM235 1440.5q-4 18.5 1.5 28t28.5 10.5l596 1q27 0 33.5 -10t4 -27t-40.5 -61.5t-50.5 -48.5t-237.5 -3q-239 -4 -248 4q-18 7 -50.5 47.5 t-36.5 59zM730 185q44 454 47.5 467t23 30.5t53.5 38.5t47.5 19t20.5 -18t-23.5 -318.5t-47.5 -327t-35 -15.5t-47 46t-33 43.5t-5 12.5t-1 22zM803.5 846q-5.5 14 13.5 229t19.5 220t3.5 9t5 7q71 84 94.5 91.5t38.5 -17.5t-38 -536q-8 -58 -26 -78.5t-41 -3.5t-43.5 41 t-26 38z" />
<glyph unicode="1" horiz-adv-x="1085" d="M735 185q44 454 47.5 467t23 30.5t53.5 38.5t47.5 19t20.5 -18t-23.5 -318.5t-47.5 -327t-35 -15.5t-47 46t-33 43.5t-5 12.5t-1 22zM808.5 846q-5.5 14 13.5 229t19.5 220t3.5 9t5 7q71 84 94.5 91.5t38.5 -17.5t-38 -536q-8 -58 -26 -78.5t-41 -3.5t-43.5 41t-26 38z " />
<glyph unicode="2" horiz-adv-x="1082" d="M51 150q53 578 65 594.5t29 4.5t46 -42.5t34 -37t7.5 -19.5t-18.5 -217.5t-26 -219.5t-13 -24.5t-41 -43.5t-49 -36.5t-24.5 4.5t-9.5 37zM102 47q8 28 44.5 66.5t42.5 41t14.5 4t233.5 -0.5q221 2 234.5 -2t24 -10t39.5 -45t29 -59.5t-27.5 -27.5t-301.5 -3 q-276 -4 -308.5 2t-24.5 34zM182 780.5q3 13.5 25.5 29.5t51.5 30t255.5 13.5t241 -9t28 -21.5t24.5 -29t15.5 -25.5t3 -19t-8 -17.5t-20 -17t-44 -18.5t-260 -7t-243 8t-32 15.5t-29.5 32t-8 35.5zM235 1440.5q-4 18.5 1.5 28t28.5 10.5l596 1q27 0 33.5 -10t4 -27 t-40.5 -61.5t-50.5 -48.5t-237.5 -3q-239 -4 -248 4q-18 7 -50.5 47.5t-36.5 59zM803.5 846q-5.5 14 13.5 229t19.5 220t3.5 9t5 7q71 84 94.5 91.5t38.5 -17.5t-38 -536q-8 -58 -26 -78.5t-41 -3.5t-43.5 41t-26 38z" />
<glyph unicode="3" horiz-adv-x="1082" d="M59 47q8 28 44.5 66.5t42.5 41t14.5 4t233.5 -0.5q221 2 234.5 -2t24 -10t39.5 -45t29 -59.5t-27.5 -27.5t-301.5 -3q-276 -4 -308.5 2t-24.5 34zM139 780.5q3 13.5 25.5 29.5t51.5 30t255.5 13.5t241 -9t28 -21.5t24.5 -29t15.5 -25.5t3 -19t-8 -17.5t-20 -17t-44 -18.5 t-260 -7t-243 8t-32 15.5t-29.5 32t-8 35.5zM192 1440.5q-4 18.5 1.5 28t28.5 10.5l596 1q27 0 33.5 -10t4 -27t-40.5 -61.5t-50.5 -48.5t-237.5 -3q-239 -4 -248 4q-18 7 -50.5 47.5t-36.5 59zM687 185q44 454 47.5 467t23 30.5t53.5 38.5t47.5 19t20.5 -18t-23.5 -318.5 t-47.5 -327t-35 -15.5t-47 46t-33 43.5t-5 12.5t-1 22zM760.5 846q-5.5 14 13.5 229t19.5 220t3.5 9t5 7q71 84 94.5 91.5t38.5 -17.5t-38 -536q-8 -58 -26 -78.5t-41 -3.5t-43.5 41t-26 38z" />
<glyph unicode="4" horiz-adv-x="1082" d="M51 854q58 517 71 516q31 21 74 -23t44 -55.5t-20.5 -205t-35 -211.5t-57 -46t-59.5 -24t-17 49zM117 780.5q3 13.5 25.5 29.5t51.5 30t255.5 13.5t241 -9t28 -21.5t24.5 -29t15.5 -25.5t3 -19t-8 -17.5t-20 -17t-44 -18.5t-260 -7t-243 8t-32 15.5t-29.5 32t-8 35.5z M665 185q44 454 47.5 467t23 30.5t53.5 38.5t47.5 19t20.5 -18t-23.5 -318.5t-47.5 -327t-35 -15.5t-47 46t-33 43.5t-5 12.5t-1 22zM738.5 846q-5.5 14 13.5 229t19.5 220t3.5 9t5 7q71 84 94.5 91.5t38.5 -17.5t-38 -536q-8 -58 -26 -78.5t-41 -3.5t-43.5 41t-26 38z" />
<glyph unicode="5" horiz-adv-x="1082" d="M59 47q8 28 44.5 66.5t42.5 41t14.5 4t233.5 -0.5q221 2 234.5 -2t24 -10t39.5 -45t29 -59.5t-27.5 -27.5t-301.5 -3q-276 -4 -308.5 2t-24.5 34zM73 854q58 517 71 516q31 21 74 -23t44 -55.5t-20.5 -205t-35 -211.5t-57 -46t-59.5 -24t-17 49zM139 780.5 q3 13.5 25.5 29.5t51.5 30t255.5 13.5t241 -9t28 -21.5t24.5 -29t15.5 -25.5t3 -19t-8 -17.5t-20 -17t-44 -18.5t-260 -7t-243 8t-32 15.5t-29.5 32t-8 35.5zM192 1440.5q-4 18.5 1.5 28t28.5 10.5l596 1q27 0 33.5 -10t4 -27t-40.5 -61.5t-50.5 -48.5t-237.5 -3 q-239 -4 -248 4q-18 7 -50.5 47.5t-36.5 59zM687 185q44 454 47.5 467t23 30.5t53.5 38.5t47.5 19t20.5 -18t-23.5 -318.5t-47.5 -327t-35 -15.5t-47 46t-33 43.5t-5 12.5t-1 22z" />
<glyph unicode="6" horiz-adv-x="1082" d="M51 150q53 578 65 594.5t29 4.5t46 -42.5t34 -37t7.5 -19.5t-18.5 -217.5t-26 -219.5t-13 -24.5t-41 -43.5t-49 -36.5t-24.5 4.5t-9.5 37zM102 47q8 28 44.5 66.5t42.5 41t14.5 4t233.5 -0.5q221 2 234.5 -2t24 -10t39.5 -45t29 -59.5t-27.5 -27.5t-301.5 -3 q-276 -4 -308.5 2t-24.5 34zM116 854q58 517 71 516q31 21 74 -23t44 -55.5t-20.5 -205t-35 -211.5t-57 -46t-59.5 -24t-17 49zM182 780.5q3 13.5 25.5 29.5t51.5 30t255.5 13.5t241 -9t28 -21.5t24.5 -29t15.5 -25.5t3 -19t-8 -17.5t-20 -17t-44 -18.5t-260 -7t-243 8 t-32 15.5t-29.5 32t-8 35.5zM235 1440.5q-4 18.5 1.5 28t28.5 10.5l596 1q27 0 33.5 -10t4 -27t-40.5 -61.5t-50.5 -48.5t-237.5 -3q-239 -4 -248 4q-18 7 -50.5 47.5t-36.5 59zM730 185q44 454 47.5 467t23 30.5t53.5 38.5t47.5 19t20.5 -18t-23.5 -318.5t-47.5 -327 t-35 -15.5t-47 46t-33 43.5t-5 12.5t-1 22z" />
<glyph unicode="7" horiz-adv-x="1082" d="M55 1440.5q-4 18.5 1.5 28t28.5 10.5l596 1q27 0 33.5 -10t4 -27t-40.5 -61.5t-50.5 -48.5t-237.5 -3q-239 -4 -248 4q-18 7 -50.5 47.5t-36.5 59zM550 185q44 454 47.5 467t23 30.5t53.5 38.5t47.5 19t20.5 -18t-23.5 -318.5t-47.5 -327t-35 -15.5t-47 46t-33 43.5 t-5 12.5t-1 22zM623.5 846q-5.5 14 13.5 229t19.5 220t3.5 9t5 7q71 84 94.5 91.5t38.5 -17.5t-38 -536q-8 -58 -26 -78.5t-41 -3.5t-43.5 41t-26 38z" />
<glyph unicode="8" horiz-adv-x="1082" d="M51 150q53 578 65 594.5t29 4.5t46 -42.5t34 -37t7.5 -19.5t-18.5 -217.5t-26 -219.5t-13 -24.5t-41 -43.5t-49 -36.5t-24.5 4.5t-9.5 37zM102 47q8 28 44.5 66.5t42.5 41t14.5 4t233.5 -0.5q221 2 234.5 -2t24 -10t39.5 -45t29 -59.5t-27.5 -27.5t-301.5 -3 q-276 -4 -308.5 2t-24.5 34zM116 854q58 517 71 516q31 21 74 -23t44 -55.5t-20.5 -205t-35 -211.5t-57 -46t-59.5 -24t-17 49zM182 780.5q3 13.5 25.5 29.5t51.5 30t255.5 13.5t241 -9t28 -21.5t24.5 -29t15.5 -25.5t3 -19t-8 -17.5t-20 -17t-44 -18.5t-260 -7t-243 8 t-32 15.5t-29.5 32t-8 35.5zM235 1440.5q-4 18.5 1.5 28t28.5 10.5l596 1q27 0 33.5 -10t4 -27t-40.5 -61.5t-50.5 -48.5t-237.5 -3q-239 -4 -248 4q-18 7 -50.5 47.5t-36.5 59zM730 185q44 454 47.5 467t23 30.5t53.5 38.5t47.5 19t20.5 -18t-23.5 -318.5t-47.5 -327 t-35 -15.5t-47 46t-33 43.5t-5 12.5t-1 22zM803.5 846q-5.5 14 13.5 229t19.5 220t3.5 9t5 7q71 84 94.5 91.5t38.5 -17.5t-38 -536q-8 -58 -26 -78.5t-41 -3.5t-43.5 41t-26 38z" />
<glyph unicode="9" horiz-adv-x="1082" d="M59 47q8 28 44.5 66.5t42.5 41t14.5 4t233.5 -0.5q221 2 234.5 -2t24 -10t39.5 -45t29 -59.5t-27.5 -27.5t-301.5 -3q-276 -4 -308.5 2t-24.5 34zM73 854q58 517 71 516q31 21 74 -23t44 -55.5t-20.5 -205t-35 -211.5t-57 -46t-59.5 -24t-17 49zM139 780.5 q3 13.5 25.5 29.5t51.5 30t255.5 13.5t241 -9t28 -21.5t24.5 -29t15.5 -25.5t3 -19t-8 -17.5t-20 -17t-44 -18.5t-260 -7t-243 8t-32 15.5t-29.5 32t-8 35.5zM192 1440.5q-4 18.5 1.5 28t28.5 10.5l596 1q27 0 33.5 -10t4 -27t-40.5 -61.5t-50.5 -48.5t-237.5 -3 q-239 -4 -248 4q-18 7 -50.5 47.5t-36.5 59zM687 185q44 454 47.5 467t23 30.5t53.5 38.5t47.5 19t20.5 -18t-23.5 -318.5t-47.5 -327t-35 -15.5t-47 46t-33 43.5t-5 12.5t-1 22zM760.5 846q-5.5 14 13.5 229t19.5 220t3.5 9t5 7q71 84 94.5 91.5t38.5 -17.5t-38 -536 q-8 -58 -26 -78.5t-41 -3.5t-43.5 41t-26 38z" />
<glyph unicode=":" horiz-adv-x="1082" d="M59 47q8 28 44.5 66.5t42.5 41t14.5 4t233.5 -0.5q221 2 234.5 -2t24 -10t39.5 -45t29 -59.5t-27.5 -27.5t-301.5 -3q-276 -4 -308.5 2t-24.5 34zM139 780.5q3 13.5 25.5 29.5t51.5 30t255.5 13.5t241 -9t28 -21.5t24.5 -29t15.5 -25.5t3 -19t-8 -17.5t-20 -17t-44 -18.5 t-260 -7t-243 8t-32 15.5t-29.5 32t-8 35.5z" />
<glyph unicode=";" horiz-adv-x="1082" d="M59 47q8 28 44.5 66.5t42.5 41t14.5 4t233.5 -0.5q221 2 234.5 -2t24 -10t39.5 -45t29 -59.5t-27.5 -27.5t-301.5 -3q-276 -4 -308.5 2t-24.5 34zM139 780.5q3 13.5 25.5 29.5t51.5 30t255.5 13.5t241 -9t28 -21.5t24.5 -29t15.5 -25.5t3 -19t-8 -17.5t-20 -17t-44 -18.5 t-260 -7t-243 8t-32 15.5t-29.5 32t-8 35.5z" />
<glyph unicode="&#x3c;" horiz-adv-x="1082" d="M51 150q53 578 65 594.5t29 4.5t46 -42.5t34 -37t7.5 -19.5t-18.5 -217.5t-26 -219.5t-13 -24.5t-41 -43.5t-49 -36.5t-24.5 4.5t-9.5 37zM102 47q8 28 44.5 66.5t42.5 41t14.5 4t233.5 -0.5q221 2 234.5 -2t24 -10t39.5 -45t29 -59.5t-27.5 -27.5t-301.5 -3 q-276 -4 -308.5 2t-24.5 34zM116 854q58 517 71 516q31 21 74 -23t44 -55.5t-20.5 -205t-35 -211.5t-57 -46t-59.5 -24t-17 49zM235 1440.5q-4 18.5 1.5 28t28.5 10.5l596 1q27 0 33.5 -10t4 -27t-40.5 -61.5t-50.5 -48.5t-237.5 -3q-239 -4 -248 4q-18 7 -50.5 47.5 t-36.5 59z" />
<glyph unicode="=" horiz-adv-x="1082" d="M59 47q8 28 44.5 66.5t42.5 41t14.5 4t233.5 -0.5q221 2 234.5 -2t24 -10t39.5 -45t29 -59.5t-27.5 -27.5t-301.5 -3q-276 -4 -308.5 2t-24.5 34zM139 780.5q3 13.5 25.5 29.5t51.5 30t255.5 13.5t241 -9t28 -21.5t24.5 -29t15.5 -25.5t3 -19t-8 -17.5t-20 -17t-44 -18.5 t-260 -7t-243 8t-32 15.5t-29.5 32t-8 35.5z" />
<glyph unicode="&#x3e;" horiz-adv-x="1082" d="M59 47q8 28 44.5 66.5t42.5 41t14.5 4t233.5 -0.5q221 2 234.5 -2t24 -10t39.5 -45t29 -59.5t-27.5 -27.5t-301.5 -3q-276 -4 -308.5 2t-24.5 34zM192 1440.5q-4 18.5 1.5 28t28.5 10.5l596 1q27 0 33.5 -10t4 -27t-40.5 -61.5t-50.5 -48.5t-237.5 -3q-239 -4 -248 4 q-18 7 -50.5 47.5t-36.5 59zM687 185q44 454 47.5 467t23 30.5t53.5 38.5t47.5 19t20.5 -18t-23.5 -318.5t-47.5 -327t-35 -15.5t-47 46t-33 43.5t-5 12.5t-1 22zM760.5 846q-5.5 14 13.5 229t19.5 220t3.5 9t5 7q71 84 94.5 91.5t38.5 -17.5t-38 -536q-8 -58 -26 -78.5 t-41 -3.5t-43.5 41t-26 38z" />
<glyph unicode="?" horiz-adv-x="1082" d="M51 150q53 578 65 594.5t29 4.5t46 -42.5t34 -37t7.5 -19.5t-18.5 -217.5t-26 -219.5t-13 -24.5t-41 -43.5t-49 -36.5t-24.5 4.5t-9.5 37zM182 780.5q3 13.5 25.5 29.5t51.5 30t255.5 13.5t241 -9t28 -21.5t24.5 -29t15.5 -25.5t3 -19t-8 -17.5t-20 -17t-44 -18.5 t-260 -7t-243 8t-32 15.5t-29.5 32t-8 35.5zM235 1440.5q-4 18.5 1.5 28t28.5 10.5l596 1q27 0 33.5 -10t4 -27t-40.5 -61.5t-50.5 -48.5t-237.5 -3q-239 -4 -248 4q-18 7 -50.5 47.5t-36.5 59zM803.5 846q-5.5 14 13.5 229t19.5 220t3.5 9t5 7q71 84 94.5 91.5t38.5 -17.5 t-38 -536q-8 -58 -26 -78.5t-41 -3.5t-43.5 41t-26 38z" />
<glyph unicode="@" />
<glyph unicode="A" horiz-adv-x="1082" d="M51 150q53 578 65 594.5t29 4.5t46 -42.5t34 -36.5q8 -10 8 -25q0 -31 -19 -213q-21 -204 -26 -219t-13 -24.5t-41 -43.5t-49 -36.5t-24.5 4.5t-9.5 37zM116 854q58 517 71 516q10 7 21 7q24 0 53 -30q44 -45 44 -57q-1 -20 -21 -204q-22 -194 -35 -211.5t-57 -45.5 q-38 -25 -55 -25q-2 0 -4 1q-16 4 -17 49zM182 780q3 14 25.5 30t51.5 30q28 14 240 14h15q226 0 241 -9t28.5 -22t24.5 -29t15.5 -25.5t3 -19t-8 -17.5t-20.5 -17t-44 -19q-24 -8 -173 -7q-39 1 -87 1q-230 2 -243 7.5t-31.5 15.5t-29.5 32q-9 17 -9 29q0 3 1 6zM235 1440 q-2 8 -2 14q-1 8 3 14q6 10 29 11l596 1q27 0 33.5 -10t4 -27t-40.5 -61.5t-50 -48.5q-10 -3 -156 -3h-82q-80 -1 -134 -1q-108 0 -114 5q-18 7 -50.5 47.5t-36.5 58.5zM730 185q44 454 47.5 467t23 30.5t53.5 38.5t47.5 19t20.5 -18q1 -3 1 -16q-1 -56 -25 -302 q-30 -302 -47 -328q-12 -18 -25 -17q-5 0 -10 2q-18 9 -47 46t-33 43.5t-5 12.5t-1 22zM804 846q-1 3 -2 16q0 46 15 213q19 215 19.5 220t3.5 9t5 7q71 83 95 91q5 2 10 2q17 0 28 -19q3 -6 3 -35q0 -103 -41 -501q-8 -59 -26 -79q-10 -11 -21 -11q-9 0 -20 8 q-23 17 -43 41t-26 38z" />
<glyph unicode="B" horiz-adv-x="1082" d="M51 150q53 578 65 594.5t29 4.5t46 -42.5t34 -36.5q8 -10 8 -25q0 -31 -19 -213q-21 -204 -26 -219t-13 -24.5t-41 -43.5t-49 -36.5t-24.5 4.5t-9.5 37zM102 47q8 28 44.5 66.5t42.5 40.5q7 2 15 4q4 1 47 1q58 0 186 -1q74 1 124 1q101 0 111 -3q14 -4 24 -10t39 -45 t29 -59.5t-28 -27.5q-18 -4 -134 -4q-67 0 -167 1q-110 -2 -182 -2q-107 0 -127 4q-26 5 -26 24q0 4 2 10zM116 854q58 517 71 516q10 7 21 7q24 0 53 -30q44 -45 44 -57q-1 -20 -21 -204q-22 -194 -35 -211.5t-57 -45.5q-38 -25 -55 -25q-2 0 -4 1q-16 4 -17 49zM182 780 q3 14 25.5 30t51.5 30q28 14 240 14h15q226 0 241 -9t28.5 -22t24.5 -29t15.5 -25.5t3 -19t-8 -17.5t-20.5 -17t-44 -19q-24 -8 -173 -7q-39 1 -87 1q-230 2 -243 7.5t-31.5 15.5t-29.5 32q-9 17 -9 29q0 3 1 6zM730 185q44 454 47.5 467t23 30.5t53.5 38.5q31 19 45 19h3 q14 -2 20 -18q1 -3 1 -16q-1 -56 -25 -302q-30 -302 -47 -328q-12 -18 -25 -17q-5 0 -10 2q-18 9 -47 46t-33 43.5t-5 12.5t-1 22z" />
<glyph unicode="C" horiz-adv-x="1082" d="M51 150q53 578 65 594.5t29 4.5t46 -42.5t34 -36.5q8 -10 8 -25q0 -31 -19 -213q-21 -204 -26 -219t-13 -24.5t-41 -43.5t-49 -36.5t-24.5 4.5t-9.5 37zM102 47q8 28 44.5 66.5t42.5 40.5q7 2 15 4q4 1 47 1q58 0 186 -1q74 1 124 1q101 0 111 -3q14 -4 24 -10t39 -45 t29 -59.5t-28 -27.5q-18 -4 -134 -4q-67 0 -167 1q-110 -2 -182 -2q-107 0 -127 4q-26 5 -26 24q0 4 2 10zM116 854q58 517 71 516q10 7 21 7q24 0 53 -30q44 -45 44 -57q-1 -20 -21 -204q-22 -194 -35 -211.5t-57 -45.5q-38 -25 -55 -25q-2 0 -4 1q-16 4 -17 49zM235 1440 q-2 8 -2 14q-1 8 3 14q6 10 29 11l596 1q27 0 33 -10q5 -7 5 -18q-1 -4 -1 -9q-2 -17 -40 -61.5t-50 -48.5q-10 -3 -156 -3h-82q-80 -1 -134 -1q-108 0 -114 5q-18 7 -50.5 47.5t-36.5 58.5z" />
<glyph unicode="D" horiz-adv-x="1082" d="M51 150q53 578 65 594.5t29 4.5t46 -42.5t34 -36.5q8 -10 8 -25q0 -31 -19 -213q-21 -204 -26 -219t-13 -24.5t-41 -43.5t-49 -36.5t-24.5 4.5t-9.5 37zM102 47q8 28 44.5 66.5t42.5 40.5q7 2 15 4q4 1 47 1q58 0 186 -1q74 1 124 1q101 0 111 -3q14 -4 24 -10t39 -45 t29 -59.5t-28 -27.5q-18 -4 -134 -4q-67 0 -167 1q-110 -2 -182 -2q-107 0 -127 4q-26 5 -26 24q0 4 2 10zM182 780q3 14 25.5 30t51.5 30q28 14 240 14h15q226 0 241 -9t28.5 -22t24.5 -29t15.5 -25.5t3 -19t-8 -17.5t-20.5 -17t-44 -19q-24 -8 -173 -7q-39 1 -87 1 q-230 2 -243 7.5t-31.5 15.5t-29.5 32q-9 17 -9 29q0 3 1 6zM730 185q44 454 47.5 467t23 30.5t53.5 38.5t47.5 19t20.5 -18q1 -3 1 -16q-1 -56 -25 -302q-30 -302 -47 -328q-12 -18 -25 -17q-5 0 -10 2q-18 9 -47 46t-33 43.5t-5 12.5t-1 22zM804 846q-1 3 -2 16 q0 46 15 213q19 215 19.5 220t3.5 9t5 7q71 83 95 91q5 2 10 2q17 0 28 -19q3 -6 3 -35q0 -103 -41 -501q-8 -59 -26 -79q-10 -11 -21 -11q-9 0 -20 8q-23 17 -43 41t-26 38z" />
<glyph unicode="E" horiz-adv-x="1082" d="M51 150q53 578 65 594.5t29 4.5t46 -42.5t34 -36.5q8 -10 8 -25q0 -31 -19 -213q-21 -204 -26 -219t-13 -24.5t-41 -43.5t-49 -36.5t-24.5 4.5t-9.5 37zM102 47q8 28 44.5 66.5t42.5 40.5q7 2 15 4q4 1 47 1q58 0 186 -1q74 1 124 1q101 0 111 -3q14 -4 24 -10t39 -45 t29 -59.5t-28 -27.5q-18 -4 -134 -4q-67 0 -167 1q-110 -2 -182 -2q-107 0 -127 4q-26 5 -26 24q0 4 2 10zM116 854q58 517 71 516q10 7 21 7q24 0 53 -30q44 -45 44 -57q-1 -20 -21 -204q-22 -194 -35 -211.5t-57 -45.5q-38 -25 -55 -25q-2 0 -4 1q-16 4 -17 49zM182 780 q3 14 25.5 30t51.5 30q28 14 240 14h15q226 0 241 -9t28.5 -22t24.5 -29t15.5 -25.5t3 -19t-8 -17.5t-20.5 -17t-44 -19q-24 -8 -173 -7q-39 1 -87 1q-230 2 -243 7.5t-31.5 15.5t-29.5 32q-9 17 -9 29q0 3 1 6zM235 1440q-2 8 -2 14q-1 8 3 14q6 10 29 11l596 1 q27 0 33 -10q5 -7 5 -18q-1 -4 -1 -9q-2 -17 -40 -61.5t-50 -48.5q-10 -3 -156 -3h-82q-80 -1 -134 -1q-108 0 -114 5q-18 7 -50.5 47.5t-36.5 58.5z" />
<glyph unicode="F" horiz-adv-x="1082" d="M51 150q53 578 65 594.5t29 4.5t46 -42.5t34 -36.5q8 -10 8 -25q0 -31 -19 -213q-21 -204 -26 -219t-13 -24.5t-41 -43.5q-33 -35 -49 -37q-4 -1 -8 0q-11 0 -17 5q-8 7 -9 37zM116 854q58 517 71 516q10 7 21 7q24 0 53 -30q44 -45 44 -57q-1 -20 -21 -204 q-22 -194 -35 -211.5t-57 -45.5q-38 -25 -55 -25q-2 0 -4 1q-16 4 -17 49zM182 780q3 14 25.5 30t51.5 30q28 14 240 14h15q226 0 241 -9t28.5 -22t24.5 -29t15.5 -25.5t3 -19t-8 -17.5t-20.5 -17t-44 -19q-24 -8 -173 -7q-39 1 -87 1q-230 2 -243 7.5t-31.5 15.5t-29.5 32 q-9 17 -9 29q0 3 1 6zM235 1440q-2 8 -2 14q-1 8 3 14q6 10 29 11l596 1q27 0 33 -10q5 -7 5 -18q-1 -4 -1 -9q-2 -17 -40 -61.5t-50 -48.5q-10 -3 -156 -3h-82q-80 -1 -134 -1q-108 0 -114 5q-18 7 -50.5 47.5t-36.5 58.5z" />
<glyph unicode="G" horiz-adv-x="1082" d="M59 47q8 28 44.5 66.5t42.5 41t14 3.5q4 1 48 1q57 0 186 -1q74 1 124 1q102 0 110 -3q14 -4 24.5 -10t39.5 -45t29 -59.5t-27 -27.5q-18 -4 -135 -4q-67 0 -167 1q-110 -2 -182 -2q-107 0 -126 4q-27 5 -27 24q0 4 2 10zM73 854q58 517 71 516q10 7 21 7q24 0 53 -30 q44 -45 44 -57q0 -19 -20 -204q-22 -193 -35.5 -211t-56.5 -46q-39 -25 -56 -25q-2 0 -4 1q-16 4 -17 49zM139 780q3 14 25.5 30t51.5 30q28 14 240 14h16q226 -1 240.5 -9.5t28 -21.5t24.5 -29t15.5 -25.5t3 -19t-8 -17.5t-20 -17t-43.5 -19q-25 -7 -174 -7q-39 0 -86 1 q-230 2 -243.5 7.5t-32 15.5t-29.5 32q-9 17 -9 29q0 4 1 6zM192 1440q-2 8 -2 14q0 9 4 14q5 10 28 11l596 1q27 0 33.5 -10t4 -27t-40.5 -61.5t-51 -48.5q-10 -3 -156 -3h-81q-80 -1 -134 -1q-108 0 -114 5q-18 7 -50.5 47.5t-36.5 58.5zM687 185q44 454 47.5 467t23 30.5 t53.5 38.5t47.5 19t20.5 -18q1 -3 1 -16q0 -56 -24 -302q-31 -303 -48 -328q-12 -17 -25 -17q-5 0 -10 2q-18 9 -47 46t-33 43.5t-5 12.5t-1 22zM760 846q-1 3 -1 16q0 46 15 213q19 215 19.5 220t3.5 9t5 7q71 84 94 91q6 2 11 2q16 0 28 -19q3 -6 3 -35q0 -103 -41 -501 q-8 -58 -26 -79q-10 -11 -21 -11q-10 0 -20 8q-23 17 -43.5 41t-26.5 38z" />
<glyph unicode="H" horiz-adv-x="1082" d="M51 150q53 578 65 594.5t29 4.5t46 -42.5t34 -36.5q8 -10 8 -25q0 -31 -19 -213q-21 -204 -26 -219t-13 -24.5t-41 -43.5t-49 -36.5t-24.5 4.5t-9.5 37zM116 854q58 517 71 516q10 7 21 7q24 0 53 -30q44 -45 44 -57q-1 -20 -21 -204q-22 -194 -35 -211.5t-57 -45.5 q-38 -25 -55 -25q-2 0 -4 1q-16 4 -17 49zM182 780q3 14 25.5 30t51.5 30q28 14 240 14h15q226 0 241 -9t28.5 -22t24.5 -29t15.5 -25.5t3 -19t-8 -17.5t-20.5 -17t-44 -19q-24 -8 -173 -7q-39 1 -87 1q-230 2 -243 7.5t-31.5 15.5t-29.5 32q-9 17 -9 29q0 3 1 6zM730 185 q44 454 47.5 467t23 30.5t53.5 38.5t47.5 19t20.5 -18q1 -3 1 -16q-1 -56 -25 -302q-30 -302 -47 -328q-12 -18 -25 -17q-5 0 -10 2q-18 9 -47 46t-33 43.5t-5 12.5t-1 22zM804 846q-1 3 -2 16q0 46 15 213q19 215 19.5 220t3.5 9t5 7q71 83 95 91q5 2 10 2q17 0 28 -19 q3 -6 3 -35q0 -103 -41 -501q-8 -59 -26 -79q-10 -11 -21 -11q-9 0 -20 8q-23 17 -43 41t-26 38z" />
<glyph unicode="I" horiz-adv-x="1082" d="M51 150q53 578 65 594.5t29 4.5t46 -42.5t34 -36.5q8 -10 8 -25q0 -31 -19 -213q-21 -204 -26 -219t-13 -24.5t-41 -43.5q-33 -35 -49 -37q-4 -1 -8 0q-11 0 -17 5q-8 7 -9 37zM116 854q58 517 71 516q10 7 21 7q24 0 53 -30q44 -45 44 -57q-1 -20 -21 -204 q-22 -194 -35 -211.5t-57 -45.5q-38 -25 -55 -25q-2 0 -4 1q-16 4 -17 49z" />
<glyph unicode="J" horiz-adv-x="1082" d="M51 150q53 578 65 594.5t29 4.5t46 -42.5t34 -36.5q8 -11 8 -25q0 -30 -19 -213q-21 -204 -26 -219t-13 -24.5t-41 -43.5t-49 -36.5t-24.5 4.5t-9.5 37zM102 47q8 28 44.5 66.5t42.5 41t15 3.5q3 1 47 1q57 0 186 -1q74 1 124 1q102 0 111 -3q13 -4 23.5 -10t39.5 -45 t29 -59.5t-28 -27.5q-17 -4 -134 -4q-67 0 -167 1q-110 -2 -182 -2q-107 0 -127 4q-26 5 -26 24q0 4 2 10zM730 185q44 454 47.5 467t23 30.5t53.5 38.5t47.5 19t20.5 -18q1 -3 1 -16q0 -56 -25 -302q-30 -303 -47 -328q-12 -17 -25 -17q-5 0 -10 2q-18 9 -47 46t-33 43.5 t-5 12.5t-1 22zM804 846q-2 3 -2 16q0 46 15 213q19 215 19.5 220t3.5 9t5 7q71 84 95 91q5 2 10 2q16 0 28 -19q3 -6 3 -35q0 -103 -41 -501q-8 -58 -26 -79q-10 -11 -21 -11q-10 0 -20 8q-23 17 -43.5 41t-25.5 38z" />
<glyph unicode="K" horiz-adv-x="1082" d="M51 150q53 578 65 594.5t29 4.5t46 -42.5t34 -36.5q8 -10 8 -25q0 -31 -19 -213q-21 -204 -26 -219t-13 -24.5t-41 -43.5t-49 -36.5t-24.5 4.5t-9.5 37zM116 854q58 517 71 516q10 7 21 7q24 0 53 -30q44 -45 44 -57q-1 -20 -21 -204q-22 -194 -35 -211.5t-57 -45.5 q-38 -25 -55 -25q-2 0 -4 1q-16 4 -17 49zM182 780q3 14 25.5 30t51.5 30q28 14 240 14h15q226 0 241 -9t28.5 -22t24.5 -29t15.5 -25.5t3 -19t-8 -17.5t-20.5 -17t-44 -19q-24 -8 -173 -7q-39 1 -87 1q-230 2 -243 7.5t-31.5 15.5t-29.5 32q-9 17 -9 29q0 3 1 6zM730 185 q44 454 47.5 467t23 30.5t53.5 38.5t47.5 19t20.5 -18q1 -3 1 -16q-1 -56 -25 -302q-30 -302 -47 -328q-12 -18 -25 -17q-5 0 -10 2q-18 9 -47 46t-33 43.5t-5 12.5t-1 22zM804 846q-1 3 -2 16q0 46 15 213q19 215 19.5 220t3.5 9t5 7q71 83 95 91q5 2 10 2q17 0 28 -19 q3 -6 3 -35q0 -103 -41 -501q-8 -59 -26 -79q-10 -11 -21 -11q-9 0 -20 8q-23 17 -43 41t-26 38z" />
<glyph unicode="L" horiz-adv-x="1082" d="M51 150q53 578 65 594.5t29 4.5t46 -42.5t34 -36.5q8 -10 8 -25q0 -31 -19 -213q-21 -204 -26 -219t-13 -24.5t-41 -43.5t-49 -36.5t-24.5 4.5t-9.5 37zM102 47q8 28 44.5 66.5t42.5 40.5q7 2 15 4q4 1 47 1q58 0 186 -1q74 1 124 1q101 0 111 -3q14 -4 24 -10t39 -45 t29 -59.5t-28 -27.5q-18 -4 -134 -4q-67 0 -167 1q-110 -2 -182 -2q-107 0 -127 4q-26 5 -26 24q0 4 2 10zM116 854q58 517 71 516q10 7 21 7q24 0 53 -30q44 -45 44 -57q-1 -20 -21 -204q-22 -194 -35 -211.5t-57 -45.5q-38 -25 -55 -25q-2 0 -4 1q-16 4 -17 49z" />
<glyph unicode="M" horiz-adv-x="1082" d="M51 150q53 578 65 594.5t29 4.5t46 -42.5t34 -36.5q8 -10 8 -25q0 -31 -19 -213q-21 -204 -26 -219t-13 -24.5t-41 -43.5t-49 -36.5t-24.5 4.5t-9.5 37zM235 1440q-2 8 -2 14q-1 8 3 14q6 10 29 11l596 1q27 0 33.5 -10t4 -27t-40.5 -61.5t-50 -48.5q-10 -3 -156 -3h-82 q-80 -1 -134 -1q-108 0 -114 5q-18 7 -50.5 47.5t-36.5 58.5zM730 185q44 454 47.5 467t23 30.5t53.5 38.5q31 19 45 19h3q14 -2 20 -18q1 -3 1 -16q-1 -56 -25 -302q-30 -302 -47 -328q-12 -18 -25 -17q-5 0 -10 2q-18 9 -47 46t-33 43.5t-5 12.5t-1 22z" />
<glyph unicode="N" horiz-adv-x="1082" d="M51 150q53 578 65 594.5t29 4.5t46 -42.5t34 -36.5q8 -10 8 -25q0 -31 -19 -213q-21 -204 -26 -219t-13 -24.5t-41 -43.5t-49 -36.5t-24.5 4.5t-9.5 37zM182 780q3 14 25.5 30t51.5 30q28 14 240 14h15q226 0 241 -9t28.5 -22t24.5 -29t15.5 -25.5t3 -19t-8 -17.5 t-20.5 -17t-44 -19q-24 -8 -173 -7q-39 1 -87 1q-230 2 -243 7.5t-31.5 15.5t-29.5 32q-9 17 -9 29q0 3 1 6zM730 185q44 454 47.5 467t23 30.5t53.5 38.5q31 19 45 19h3q14 -2 20 -18q1 -3 1 -16q-1 -56 -25 -302q-30 -302 -47 -328q-12 -18 -25 -17q-5 0 -10 2 q-18 9 -47 46t-33 43.5t-5 12.5t-1 22z" />
<glyph unicode="O" horiz-adv-x="1082" d="M51 150q53 578 65 594.5t29 4.5t46 -42.5t34 -36.5q8 -10 8 -25q0 -31 -19 -213q-21 -204 -26 -219t-13 -24.5t-41 -43.5t-49 -36.5t-24.5 4.5t-9.5 37zM102 47q8 28 44.5 66.5t42.5 40.5q7 2 15 4q4 1 47 1q58 0 186 -1q74 1 124 1q101 0 111 -3q14 -4 24 -10t39 -45 t29 -59.5t-28 -27.5q-18 -4 -134 -4q-67 0 -167 1q-110 -2 -182 -2q-107 0 -127 4q-26 5 -26 24q0 4 2 10zM116 854q58 517 71 516q10 7 21 7q24 0 53 -30q44 -45 44 -57q-1 -20 -21 -204q-22 -194 -35 -211.5t-57 -45.5q-38 -25 -55 -25q-2 0 -4 1q-16 4 -17 49zM235 1440 q-2 8 -2 14q-1 8 3 14q6 10 29 11l596 1q27 0 33.5 -10t4 -27t-40.5 -61.5t-50 -48.5q-10 -3 -156 -3h-82q-80 -1 -134 -1q-108 0 -114 5q-18 7 -50.5 47.5t-36.5 58.5zM730 185q44 454 47.5 467t23 30.5t53.5 38.5t47.5 19t20.5 -18q1 -3 1 -16q-1 -56 -25 -302 q-30 -302 -47 -328q-12 -18 -25 -17q-5 0 -10 2q-18 9 -47 46t-33 43.5t-5 12.5t-1 22zM804 846q-1 3 -2 16q0 46 15 213q19 215 19.5 220t3.5 9t5 7q71 83 95 91q5 2 10 2q17 0 28 -19q3 -6 3 -35q0 -103 -41 -501q-8 -59 -26 -79q-10 -11 -21 -11q-9 0 -20 8 q-23 17 -43 41t-26 38z" />
<glyph unicode="P" horiz-adv-x="1082" d="M51 150q53 578 65 594.5t29 4.5t46 -42.5t34 -36.5q8 -10 8 -25q0 -31 -19 -213q-21 -204 -26 -219t-13 -24.5t-41 -43.5q-33 -35 -49 -37q-4 -1 -8 0q-11 0 -17 5q-8 7 -9 37zM116 854q58 517 71 516q10 7 21 7q24 0 53 -30q44 -45 44 -57q-1 -20 -21 -204 q-22 -194 -35 -211.5t-57 -45.5q-38 -25 -55 -25q-2 0 -4 1q-16 4 -17 49zM182 780q3 14 25.5 30t51.5 30q28 14 240 14h15q226 0 241 -9t28.5 -22t24.5 -29t15.5 -25.5t3 -19t-8 -17.5t-20.5 -17t-44 -19q-24 -8 -173 -7q-39 1 -87 1q-230 2 -243 7.5t-31.5 15.5t-29.5 32 q-9 17 -9 29q0 3 1 6zM235 1440q-2 8 -2 14q-1 8 3 14q6 10 29 11l596 1q27 0 33.5 -10t4 -27t-40.5 -61.5t-50 -48.5q-10 -3 -156 -3h-82q-80 -1 -134 -1q-108 0 -114 5q-18 7 -50.5 47.5t-36.5 58.5zM804 846q-1 3 -2 16q0 46 15 213q19 215 19.5 220t3.5 9t5 7 q71 83 95 91q5 2 10 2q17 0 28 -19q3 -6 3 -35q0 -103 -41 -501q-8 -59 -26 -79q-10 -11 -21 -11q-9 0 -20 8q-23 17 -43 41t-26 38z" />
<glyph unicode="Q" horiz-adv-x="1082" d="M51 854q58 517 71 516q10 7 21 7q24 0 53 -30q44 -45 44 -57q0 -19 -20 -204q-22 -193 -35.5 -211t-56.5 -46q-39 -25 -56 -25q-2 0 -4 1q-16 4 -17 49zM117 780q3 14 25.5 30t51.5 30q28 14 240 14h16q226 -1 240.5 -9.5t28 -21.5t24.5 -29t15.5 -25.5t3 -19t-8 -17.5 t-20 -17t-43.5 -19q-25 -7 -174 -7q-39 0 -86 1q-230 2 -243.5 7.5t-32 15.5t-29.5 32q-9 17 -9 29q0 4 1 6zM170 1440q-2 8 -2 14q0 9 4 14q5 10 28 11l596 1q27 0 33.5 -10t4 -27t-40.5 -61.5t-51 -48.5q-10 -3 -156 -3h-81q-80 -1 -134 -1q-108 0 -114 5 q-18 7 -50.5 47.5t-36.5 58.5zM665 185q44 454 47.5 467t23 30.5t53.5 38.5t47.5 19t20.5 -18q1 -3 1 -16q0 -56 -24 -302q-31 -303 -48 -328q-12 -17 -25 -17q-5 0 -10 2q-18 9 -47 46t-33 43.5t-5 12.5t-1 22zM738 846q-1 3 -1 16q0 46 15 213q19 215 19.5 220t3.5 9t5 7 q71 84 94 91q6 2 11 2q16 0 28 -19q3 -6 3 -35q0 -103 -41 -501q-8 -58 -26 -79q-10 -11 -21 -11q-10 0 -20 8q-23 17 -43.5 41t-26.5 38z" />
<glyph unicode="R" horiz-adv-x="1082" d="M51 150q53 578 65 594.5t29 4.5t46 -42.5t34 -36.5q8 -10 8 -25q0 -31 -19 -213q-21 -204 -26 -219t-13 -24.5t-41 -43.5q-33 -35 -49 -37q-4 -1 -8 0q-11 0 -17 5q-8 7 -9 37zM182 780q3 14 25.5 30t51.5 30q28 14 240 14h15q226 0 241 -9t28.5 -22t24.5 -29 q12 -16 16 -26q3 -7 3 -14q-1 -12 -9 -22q-6 -8 -20 -17t-44 -19q-24 -8 -173 -7q-39 1 -87 1q-230 2 -243 7.5t-31.5 15.5t-29.5 32q-9 17 -9 29q0 3 1 6z" />
<glyph unicode="S" horiz-adv-x="1082" d="M59 47q8 28 44.5 66.5t42.5 40.5t14 4q4 1 48 1q58 0 186 -1q74 1 124 1q100 0 110 -3q14 -4 24.5 -10t39.5 -45t29 -59q1 -21 -27 -28q-18 -4 -135 -4q-67 0 -167 1q-110 -2 -182 -2q-106 0 -126 4q-26 5 -27 24q0 4 2 10zM73 854q58 517 71 516q10 7 21 7q24 0 53 -30 q44 -45 44 -57q0 -20 -20 -204q-22 -194 -36 -212q-12 -17 -56 -45q-38 -25 -56 -25q-2 0 -4 1q-16 4 -17 49zM139 780q3 14 25.5 30t51.5 30q28 14 240 14h16q226 0 240.5 -9t28 -22t24.5 -29t15.5 -25.5t3 -19t-8 -17.5t-20 -17t-43.5 -19q-24 -8 -174 -7q-38 1 -86 1 q-230 2 -243.5 7.5t-32 15.5t-29.5 32q-9 17 -9 29q0 3 1 6zM192 1440q-2 8 -2 14q0 8 4 14q6 10 28 11l596 1q27 0 33.5 -10t4 -27t-40.5 -61q-39 -45 -51 -49q-10 -3 -156 -3h-81q-80 -1 -134 -1q-108 0 -114 5q-18 7 -50.5 47.5t-36.5 58.5zM687 185q44 454 47.5 467 t23 30.5t53.5 38.5q31 19 45 19h2q14 -2 21 -18q1 -3 1 -16q0 -56 -24 -302q-30 -302 -48 -328q-12 -18 -25 -17q-5 0 -10 2q-18 9 -47 46t-33 43.5t-5 12.5t-1 22z" />
<glyph unicode="T" horiz-adv-x="1082" d="M51 150q53 578 65 594.5t29 4.5t46 -42.5t34 -36.5q8 -10 8 -25q0 -31 -19 -213q-21 -204 -26 -219t-13 -24.5t-41 -43.5t-49 -36.5t-24.5 4.5t-9.5 37zM102 47q8 28 44.5 66.5t42.5 40.5q7 2 15 4q4 1 47 1q58 0 186 -1q74 1 124 1q101 0 111 -3q14 -4 24 -10t39 -45 t29 -59.5t-28 -27.5q-18 -4 -134 -4q-67 0 -167 1q-110 -2 -182 -2q-107 0 -127 4q-26 5 -26 24q0 4 2 10zM116 854q58 517 71 516q10 7 21 7q24 0 53 -30q44 -45 44 -57q-1 -20 -21 -204q-22 -194 -35 -211.5t-57 -45.5q-38 -25 -55 -25q-2 0 -4 1q-16 4 -17 49zM182 780 q3 14 25.5 30t51.5 30q28 14 240 14h15q226 0 241 -9t28.5 -22t24.5 -29q12 -16 16 -26q3 -7 3 -14q-1 -12 -9 -22q-6 -8 -20 -17t-44 -19q-24 -8 -173 -7q-39 1 -87 1q-230 2 -243 7.5t-31.5 15.5t-29.5 32q-9 17 -9 29q0 3 1 6z" />
<glyph unicode="U" horiz-adv-x="1082" d="M51 150q53 578 65 594.5t29 4.5t46 -42.5t34 -36.5q8 -10 8 -25q0 -31 -19 -213q-21 -204 -26 -219t-13 -24.5t-41 -43.5t-49 -36.5t-24.5 4.5t-9.5 37zM102 47q8 28 44.5 66.5t42.5 40.5q7 2 15 4q4 1 47 1q58 0 186 -1q74 1 124 1q101 0 111 -3q14 -4 24 -10t39 -45 t29 -59.5t-28 -27.5q-18 -4 -134 -4q-67 0 -167 1q-110 -2 -182 -2q-107 0 -127 4q-26 5 -26 24q0 4 2 10zM116 854q58 517 71 516q10 7 21 7q24 0 53 -30q44 -45 44 -57q-1 -20 -21 -204q-22 -194 -35 -211.5t-57 -45.5q-38 -25 -55 -25q-2 0 -4 1q-16 4 -17 49zM730 185 q44 454 47.5 467t23 30.5t53.5 38.5t47.5 19t20.5 -18q1 -3 1 -16q-1 -56 -25 -302q-30 -302 -47 -328q-12 -18 -25 -17q-5 0 -10 2q-18 9 -47 46t-33 43.5t-5 12.5t-1 22zM804 846q-1 3 -2 16q0 46 15 213q19 215 19.5 220t3.5 9t5 7q71 83 95 91q5 2 10 2q17 0 28 -19 q3 -6 3 -35q0 -103 -41 -501q-8 -59 -26 -79q-10 -11 -21 -11q-9 0 -20 8q-23 17 -43 41t-26 38z" />
<glyph unicode="V" horiz-adv-x="1082" d="M51 150q53 578 65 594q7 10 16 10q6 0 13 -5q17 -12 46 -42.5t34 -36.5q8 -10 8 -25q0 -31 -19 -213q-21 -204 -26 -219t-13 -24.5t-41 -43.5t-49 -36.5t-24.5 4.5t-9.5 37zM102 47q8 28 44.5 66.5t42.5 40.5q7 2 15 4q4 1 47 1q58 0 186 -1q74 1 124 1q101 0 111 -3 q14 -4 24 -10t39 -45t29 -59.5t-28 -27.5q-18 -4 -134 -4q-67 0 -167 1q-110 -2 -182 -2q-107 0 -127 4q-26 5 -26 24q0 4 2 10zM730 185q44 454 47.5 467t23 30.5t53.5 38.5q31 19 45 19h3q14 -2 20 -18q1 -3 1 -16q-1 -56 -25 -302q-30 -302 -47 -328q-12 -18 -25 -17 q-5 0 -10 2q-18 9 -47 46t-33 43.5t-5 12.5t-1 22z" />
<glyph unicode="W" horiz-adv-x="1082" d="M59 47q8 28 44.5 66.5t42.5 40.5t14 4q4 1 48 1q58 0 186 -1q74 1 124 1q100 0 110 -3q14 -4 24.5 -10t39.5 -45t29 -59q1 -21 -27 -28q-18 -4 -135 -4q-67 0 -167 1q-110 -2 -182 -2q-106 0 -126 4q-26 5 -27 24q0 4 2 10zM73 854q58 517 71 516q10 7 21 7q24 0 53 -30 q44 -45 44 -57q0 -20 -20 -204q-22 -194 -36 -212q-12 -17 -56 -45q-38 -25 -56 -25q-2 0 -4 1q-16 4 -17 49zM760 846q-1 3 -1 16q0 46 15 213q19 215 19.5 220t3.5 9t5 7q70 83 94 91q5 2 11 2q17 0 28 -19q3 -6 3 -35q0 -103 -41 -501q-8 -59 -26 -79q-10 -11 -21 -11 q-9 0 -20 8q-23 17 -43.5 41t-26.5 38z" />
<glyph unicode="X" horiz-adv-x="1082" d="M51 150q53 578 65 594.5t29 4.5t46 -42.5t34 -36.5q8 -10 8 -25q0 -31 -19 -213q-21 -204 -26 -219t-13 -24.5t-41 -43.5t-49 -36.5t-24.5 4.5t-9.5 37zM116 854q58 517 71 516q10 7 21 7q24 0 53 -30q44 -45 44 -57q-1 -20 -21 -204q-22 -194 -35 -211.5t-57 -45.5 q-38 -25 -55 -25q-2 0 -4 1q-16 4 -17 49zM182 780q3 14 25.5 30t51.5 30q28 14 240 14h15q226 0 241 -9t28.5 -22t24.5 -29t15.5 -25.5t3 -19t-8 -17.5t-20.5 -17t-44 -19q-24 -8 -173 -7q-39 1 -87 1q-230 2 -243 7.5t-31.5 15.5t-29.5 32q-9 17 -9 29q0 3 1 6zM730 185 q44 454 47.5 467t23 30.5t53.5 38.5t47.5 19t20.5 -18q1 -3 1 -16q-1 -56 -25 -302q-30 -302 -47 -328q-12 -18 -25 -17q-5 0 -10 2q-18 9 -47 46t-33 43.5t-5 12.5t-1 22zM804 846q-1 3 -2 16q0 46 15 213q19 215 19.5 220t3.5 9t5 7q71 83 95 91q5 2 10 2q17 0 28 -19 q3 -6 3 -35q0 -103 -41 -501q-8 -59 -26 -79q-10 -11 -21 -11q-9 0 -20 8q-23 17 -43 41t-26 38z" />
<glyph unicode="Y" horiz-adv-x="1082" d="M59 47q8 28 44.5 66.5t42.5 41t14 3.5q4 1 48 1q57 0 186 -1q74 1 124 1q102 0 110 -3q14 -4 24.5 -10t39.5 -45t29 -59.5t-27 -27.5q-18 -4 -135 -4q-67 0 -167 1q-110 -2 -182 -2q-107 0 -126 4q-27 5 -27 24q0 4 2 10zM73 854q58 517 71 516q10 7 21 7q24 0 53 -30 q44 -45 44 -57q0 -19 -20 -204q-22 -193 -35.5 -211t-56.5 -46q-39 -25 -56 -25q-2 0 -4 1q-16 4 -17 49zM139 780q3 14 25.5 30t51.5 30q28 14 240 14h16q226 -1 240.5 -9.5t28 -21.5t24.5 -29t15.5 -25.5t3 -19t-8 -17.5t-20 -17t-43.5 -19q-25 -7 -174 -7q-39 0 -86 1 q-230 2 -243.5 7.5t-32 15.5t-29.5 32q-9 17 -9 29q0 4 1 6zM687 185q44 454 47.5 467t23 30.5t53.5 38.5t47.5 19t20.5 -18q1 -3 1 -16q0 -56 -24 -302q-31 -303 -48 -328q-12 -17 -25 -17q-5 0 -10 2q-18 9 -47 46t-33 43.5t-5 12.5t-1 22zM760 846q-1 3 -1 16 q0 46 15 213q19 215 19.5 220t3.5 9t5 7q71 84 94 91q6 2 11 2q16 0 28 -19q3 -6 3 -35q0 -103 -41 -501q-8 -58 -26 -79q-10 -11 -21 -11q-10 0 -20 8q-23 17 -43.5 41t-26.5 38z" />
<glyph unicode="Z" horiz-adv-x="1082" d="M51 150q53 578 65 594.5t29 4.5t46 -42.5t34 -36.5q8 -10 8 -25q0 -31 -19 -213q-21 -204 -26 -219t-13 -24.5t-41 -43.5t-49 -36.5t-24.5 4.5t-9.5 37zM102 47q8 28 44.5 66.5t42.5 40.5q7 2 15 4q4 1 47 1q58 0 186 -1q74 1 124 1q101 0 111 -3q14 -4 24 -10t39 -45 t29 -59.5t-28 -27.5q-18 -4 -134 -4q-67 0 -167 1q-110 -2 -182 -2q-107 0 -127 4q-26 5 -26 24q0 4 2 10zM182 780q3 14 25.5 30t51.5 30q28 14 240 14h15q226 0 241 -9t28.5 -22t24.5 -29t15.5 -25.5t3 -19t-8 -17.5t-20.5 -17t-44 -19q-24 -8 -173 -7q-39 1 -87 1 q-230 2 -243 7.5t-31.5 15.5t-29.5 32q-9 17 -9 29q0 3 1 6zM235 1440q-2 8 -2 14q-1 8 3 14q6 10 29 11l596 1q27 0 33.5 -10t4 -27t-40.5 -61.5t-50 -48.5q-10 -3 -156 -3h-82q-80 -1 -134 -1q-108 0 -114 5q-18 7 -50.5 47.5t-36.5 58.5zM804 846q-1 3 -2 16q0 46 15 213 q19 215 19.5 220t3.5 9t5 7q71 83 95 91q5 2 10 2q17 0 28 -19q3 -6 3 -35q0 -103 -41 -501q-8 -59 -26 -79q-10 -11 -21 -11q-9 0 -20 8q-23 17 -43 41t-26 38z" />
<glyph unicode="[" horiz-adv-x="1082" d="M51 150q53 578 65 594.5t29 4.5t46 -42.5t34 -37t7.5 -19.5t-18.5 -217.5t-26 -219.5t-13 -24.5t-41 -43.5t-49 -36.5t-24.5 4.5t-9.5 37zM102 47q8 28 44.5 66.5t42.5 41t14.5 4t233.5 -0.5q221 2 234.5 -2t24 -10t39.5 -45t29 -59.5t-27.5 -27.5t-301.5 -3 q-276 -4 -308.5 2t-24.5 34zM116 854q58 517 71 516q31 21 74 -23t44 -55.5t-20.5 -205t-35 -211.5t-57 -46t-59.5 -24t-17 49zM235 1440.5q-4 18.5 1.5 28t28.5 10.5l596 1q27 0 33.5 -10t4 -27t-40.5 -61.5t-50.5 -48.5t-237.5 -3q-239 -4 -248 4q-18 7 -50.5 47.5 t-36.5 59z" />
<glyph unicode="\" horiz-adv-x="1082" d="M51 854q58 517 71 516q31 21 74 -23t44 -55.5t-20.5 -205t-35 -211.5t-57 -46t-59.5 -24t-17 49zM117 780.5q3 13.5 25.5 29.5t51.5 30t255.5 13.5t241 -9t28 -21.5t24.5 -29t15.5 -25.5t3 -19t-8 -17.5t-20 -17t-44 -18.5t-260 -7t-243 8t-32 15.5t-29.5 32t-8 35.5z M665 185q44 454 47.5 467t23 30.5t53.5 38.5t47.5 19t20.5 -18t-23.5 -318.5t-47.5 -327t-35 -15.5t-47 46t-33 43.5t-5 12.5t-1 22z" />
<glyph unicode="]" horiz-adv-x="1082" d="M59 47q8 28 44.5 66.5t42.5 41t14.5 4t233.5 -0.5q221 2 234.5 -2t24 -10t39.5 -45t29 -59.5t-27.5 -27.5t-301.5 -3q-276 -4 -308.5 2t-24.5 34zM192 1440.5q-4 18.5 1.5 28t28.5 10.5l596 1q27 0 33.5 -10t4 -27t-40.5 -61.5t-50.5 -48.5t-237.5 -3q-239 -4 -248 4 q-18 7 -50.5 47.5t-36.5 59zM687 185q44 454 47.5 467t23 30.5t53.5 38.5t47.5 19t20.5 -18t-23.5 -318.5t-47.5 -327t-35 -15.5t-47 46t-33 43.5t-5 12.5t-1 22zM760.5 846q-5.5 14 13.5 229t19.5 220t3.5 9t5 7q71 84 94.5 91.5t38.5 -17.5t-38 -536q-8 -58 -26 -78.5 t-41 -3.5t-43.5 41t-26 38z" />
<glyph unicode="^" horiz-adv-x="1082" d="M51 854q58 517 71 516q31 21 74 -23t44 -55.5t-20.5 -205t-35 -211.5t-57 -46t-59.5 -24t-17 49zM170 1440.5q-4 18.5 1.5 28t28.5 10.5l596 1q27 0 33.5 -10t4 -27t-40.5 -61.5t-50.5 -48.5t-237.5 -3q-239 -4 -248 4q-18 7 -50.5 47.5t-36.5 59zM738.5 846 q-5.5 14 13.5 229t19.5 220t3.5 9t5 7q71 84 94.5 91.5t38.5 -17.5t-38 -536q-8 -58 -26 -78.5t-41 -3.5t-43.5 41t-26 38z" />
<glyph unicode="_" horiz-adv-x="1082" d="M59 47q8 28 44.5 66.5t42.5 41t14.5 4t233.5 -0.5q221 2 234.5 -2t24 -10t39.5 -45t29 -59.5t-27.5 -27.5t-301.5 -3q-276 -4 -308.5 2t-24.5 34z" />
<glyph unicode="`" horiz-adv-x="1082" d="M51 854q58 517 71 516q31 21 74 -23t44 -55.5t-20.5 -205t-35 -211.5t-57 -46t-59.5 -24t-17 49z" />
<glyph unicode="a" horiz-adv-x="1082" d="M51 150q53 578 65 594.5t29 4.5t46 -42.5t34 -36.5q8 -10 8 -25q0 -31 -19 -213q-21 -204 -26 -219t-13 -24.5t-41 -43.5t-49 -36.5t-24.5 4.5t-9.5 37zM116 854q58 517 71 516q10 7 21 7q24 0 53 -30q44 -45 44 -57q-1 -20 -21 -204q-22 -194 -35 -211.5t-57 -45.5 q-38 -25 -55 -25q-2 0 -4 1q-16 4 -17 49zM182 780q3 14 25.5 30t51.5 30q28 14 240 14h15q226 0 241 -9t28.5 -22t24.5 -29t15.5 -25.5t3 -19t-8 -17.5t-20.5 -17t-44 -19q-24 -8 -173 -7q-39 1 -87 1q-230 2 -243 7.5t-31.5 15.5t-29.5 32q-9 17 -9 29q0 3 1 6zM235 1440 q-2 8 -2 14q-1 8 3 14q6 10 29 11l596 1q27 0 33.5 -10t4 -27t-40.5 -61.5t-50 -48.5q-10 -3 -156 -3h-82q-80 -1 -134 -1q-108 0 -114 5q-18 7 -50.5 47.5t-36.5 58.5zM730 185q44 454 47.5 467t23 30.5t53.5 38.5t47.5 19t20.5 -18q1 -3 1 -16q-1 -56 -25 -302 q-30 -302 -47 -328q-12 -18 -25 -17q-5 0 -10 2q-18 9 -47 46t-33 43.5t-5 12.5t-1 22zM804 846q-1 3 -2 16q0 46 15 213q19 215 19.5 220t3.5 9t5 7q71 83 95 91q5 2 10 2q17 0 28 -19q3 -6 3 -35q0 -103 -41 -501q-8 -59 -26 -79q-10 -11 -21 -11q-9 0 -20 8 q-23 17 -43 41t-26 38z" />
<glyph unicode="b" horiz-adv-x="1082" d="M51 150q53 578 65 594.5t29 4.5t46 -42.5t34 -36.5q8 -10 8 -25q0 -31 -19 -213q-21 -204 -26 -219t-13 -24.5t-41 -43.5t-49 -36.5t-24.5 4.5t-9.5 37zM102 47q8 28 44.5 66.5t42.5 40.5q7 2 15 4q4 1 47 1q58 0 186 -1q74 1 124 1q101 0 111 -3q14 -4 24 -10t39 -45 t29 -59.5t-28 -27.5q-18 -4 -134 -4q-67 0 -167 1q-110 -2 -182 -2q-107 0 -127 4q-26 5 -26 24q0 4 2 10zM116 854q58 517 71 516q10 7 21 7q24 0 53 -30q44 -45 44 -57q-1 -20 -21 -204q-22 -194 -35 -211.5t-57 -45.5q-38 -25 -55 -25q-2 0 -4 1q-16 4 -17 49zM182 780 q3 14 25.5 30t51.5 30q28 14 240 14h15q226 0 241 -9t28.5 -22t24.5 -29t15.5 -25.5t3 -19t-8 -17.5t-20.5 -17t-44 -19q-24 -8 -173 -7q-39 1 -87 1q-230 2 -243 7.5t-31.5 15.5t-29.5 32q-9 17 -9 29q0 3 1 6zM730 185q44 454 47.5 467t23 30.5t53.5 38.5q31 19 45 19h3 q14 -2 20 -18q1 -3 1 -16q-1 -56 -25 -302q-30 -302 -47 -328q-12 -18 -25 -17q-5 0 -10 2q-18 9 -47 46t-33 43.5t-5 12.5t-1 22z" />
<glyph unicode="c" horiz-adv-x="1082" d="M51 150q53 578 65 594.5t29 4.5t46 -42.5t34 -36.5q8 -10 8 -25q0 -31 -19 -213q-21 -204 -26 -219t-13 -24.5t-41 -43.5t-49 -36.5t-24.5 4.5t-9.5 37zM102 47q8 28 44.5 66.5t42.5 40.5q7 2 15 4q4 1 47 1q58 0 186 -1q74 1 124 1q101 0 111 -3q14 -4 24 -10t39 -45 t29 -59.5t-28 -27.5q-18 -4 -134 -4q-67 0 -167 1q-110 -2 -182 -2q-107 0 -127 4q-26 5 -26 24q0 4 2 10zM182 780q3 14 25.5 30t51.5 30q28 14 240 14h15q226 0 241 -9t28.5 -22t24.5 -29q12 -16 16 -26q3 -7 3 -14q-1 -12 -9 -22q-6 -8 -20 -17t-44 -19q-24 -8 -173 -7 q-39 1 -87 1q-230 2 -243 7.5t-31.5 15.5t-29.5 32q-9 17 -9 29q0 3 1 6z" />
<glyph unicode="d" horiz-adv-x="1082" d="M51 150q53 578 65 594.5t29 4.5t46 -42.5t34 -36.5q8 -10 8 -25q0 -31 -19 -213q-21 -204 -26 -219t-13 -24.5t-41 -43.5t-49 -36.5t-24.5 4.5t-9.5 37zM102 47q8 28 44.5 66.5t42.5 40.5q7 2 15 4q4 1 47 1q58 0 186 -1q74 1 124 1q101 0 111 -3q14 -4 24 -10t39 -45 t29 -59.5t-28 -27.5q-18 -4 -134 -4q-67 0 -167 1q-110 -2 -182 -2q-107 0 -127 4q-26 5 -26 24q0 4 2 10zM182 780q3 14 25.5 30t51.5 30q28 14 240 14h15q226 0 241 -9t28.5 -22t24.5 -29t15.5 -25.5t3 -19t-8 -17.5t-20.5 -17t-44 -19q-24 -8 -173 -7q-39 1 -87 1 q-230 2 -243 7.5t-31.5 15.5t-29.5 32q-9 17 -9 29q0 3 1 6zM730 185q44 454 47.5 467t23 30.5t53.5 38.5t47.5 19t20.5 -18q1 -3 1 -16q-1 -56 -25 -302q-30 -302 -47 -328q-12 -18 -25 -17q-5 0 -10 2q-18 9 -47 46t-33 43.5t-5 12.5t-1 22zM804 846q-1 3 -2 16 q0 46 15 213q19 215 19.5 220t3.5 9t5 7q71 83 95 91q5 2 10 2q17 0 28 -19q3 -6 3 -35q0 -103 -41 -501q-8 -59 -26 -79q-10 -11 -21 -11q-9 0 -20 8q-23 17 -43 41t-26 38z" />
<glyph unicode="e" horiz-adv-x="1082" d="M51 150q53 578 65 594.5t29 4.5t46 -42.5t34 -36.5q8 -10 8 -25q0 -31 -19 -213q-21 -204 -26 -219t-13 -24.5t-41 -43.5t-49 -36.5t-24.5 4.5t-9.5 37zM102 47q8 28 44.5 66.5t42.5 40.5q7 2 15 4q4 1 47 1q58 0 186 -1q74 1 124 1q101 0 111 -3q14 -4 24 -10t39 -45 t29 -59.5t-28 -27.5q-18 -4 -134 -4q-67 0 -167 1q-110 -2 -182 -2q-107 0 -127 4q-26 5 -26 24q0 4 2 10zM116 854q58 517 71 516q10 7 21 7q24 0 53 -30q44 -45 44 -57q-1 -20 -21 -204q-22 -194 -35 -211.5t-57 -45.5q-38 -25 -55 -25q-2 0 -4 1q-16 4 -17 49zM182 780 q3 14 25.5 30t51.5 30q28 14 240 14h15q226 0 241 -9t28.5 -22t24.5 -29t15.5 -25.5t3 -19t-8 -17.5t-20.5 -17t-44 -19q-24 -8 -173 -7q-39 1 -87 1q-230 2 -243 7.5t-31.5 15.5t-29.5 32q-9 17 -9 29q0 3 1 6zM235 1440q-2 8 -2 14q-1 8 3 14q6 10 29 11l596 1 q27 0 33 -10q5 -7 5 -18q-1 -4 -1 -9q-2 -17 -40 -61.5t-50 -48.5q-10 -3 -156 -3h-82q-80 -1 -134 -1q-108 0 -114 5q-18 7 -50.5 47.5t-36.5 58.5z" />
<glyph unicode="f" horiz-adv-x="1082" d="M51 150q53 578 65 594.5t29 4.5t46 -42.5t34 -36.5q8 -11 8 -25q0 -30 -19 -213q-21 -204 -26 -219t-13 -24.5t-41 -43.5t-49 -37h-8q-10 0 -17 5q-8 7 -9 37zM116 854q58 517 71 516q10 7 21 7q24 0 53 -30q44 -45 44 -57q0 -19 -21 -204q-21 -193 -34.5 -211t-57.5 -46 q-38 -25 -55 -25q-2 0 -4 1q-16 4 -17 49zM182 780q3 14 25.5 30t51.5 30q28 14 240 14h15q227 -1 241.5 -9.5t28 -21.5t24.5 -29t15.5 -25.5t3 -19t-8 -17.5t-20 -17t-44.5 -19q-24 -7 -173 -7q-39 0 -87 1q-229 2 -242.5 7.5t-32 15.5t-29.5 32q-9 17 -9 29q0 4 1 6z M235 1440q-2 8 -2 14q0 9 3 14q6 10 29 11l596 1q27 0 33 -10q5 -7 5 -18q0 -4 -1 -9q-2 -17 -40 -61.5t-50 -48.5q-10 -3 -156 -3h-82q-80 -1 -134 -1q-108 0 -114 5q-18 7 -50.5 47.5t-36.5 58.5z" />
<glyph unicode="g" horiz-adv-x="1082" d="M59 47q8 28 44.5 66.5t42.5 41t14 3.5q4 1 48 1q57 0 186 -1q74 1 124 1q102 0 110 -3q14 -4 24.5 -10t39.5 -45t29 -59.5t-27 -27.5q-18 -4 -135 -4q-67 0 -167 1q-110 -2 -182 -2q-107 0 -126 4q-27 5 -27 24q0 4 2 10zM73 854q58 517 71 516q10 7 21 7q24 0 53 -30 q44 -45 44 -57q0 -19 -20 -204q-22 -193 -35.5 -211t-56.5 -46q-39 -25 -56 -25q-2 0 -4 1q-16 4 -17 49zM139 780q3 14 25.5 30t51.5 30q28 14 240 14h16q226 -1 240.5 -9.5t28 -21.5t24.5 -29t15.5 -25.5t3 -19t-8 -17.5t-20 -17t-43.5 -19q-25 -7 -174 -7q-39 0 -86 1 q-230 2 -243.5 7.5t-32 15.5t-29.5 32q-9 17 -9 29q0 4 1 6zM192 1440q-2 8 -2 14q0 9 4 14q5 10 28 11l596 1q27 0 33.5 -10t4 -27t-40.5 -61.5t-51 -48.5q-10 -3 -156 -3h-81q-80 -1 -134 -1q-108 0 -114 5q-18 7 -50.5 47.5t-36.5 58.5zM687 185q44 454 47.5 467t23 30.5 t53.5 38.5t47.5 19t20.5 -18q1 -3 1 -16q0 -56 -24 -302q-31 -303 -48 -328q-12 -17 -25 -17q-5 0 -10 2q-18 9 -47 46t-33 43.5t-5 12.5t-1 22zM760 846q-1 3 -1 16q0 46 15 213q19 215 19.5 220t3.5 9t5 7q71 84 94 91q6 2 11 2q16 0 28 -19q3 -6 3 -35q0 -103 -41 -501 q-8 -58 -26 -79q-10 -11 -21 -11q-10 0 -20 8q-23 17 -43.5 41t-26.5 38z" />
<glyph unicode="h" horiz-adv-x="1082" d="M51 150q53 578 65 594.5t29 4.5t46 -42.5t34 -36.5q8 -10 8 -25q0 -31 -19 -213q-21 -204 -26 -219t-13 -24.5t-41 -43.5t-49 -36.5t-24.5 4.5t-9.5 37zM116 854q58 517 71 516q10 7 21 7q24 0 53 -30q44 -45 44 -57q-1 -20 -21 -204q-22 -194 -35 -211.5t-57 -45.5 q-38 -25 -55 -25q-2 0 -4 1q-16 4 -17 49zM182 780q3 14 25.5 30t51.5 30q28 14 240 14h15q226 0 241 -9t28.5 -22t24.5 -29t15.5 -25.5t3 -19t-8 -17.5t-20.5 -17t-44 -19q-24 -8 -173 -7q-39 1 -87 1q-230 2 -243 7.5t-31.5 15.5t-29.5 32q-9 17 -9 29q0 3 1 6zM730 185 q44 454 47.5 467t23 30.5t53.5 38.5q31 19 45 19h3q14 -2 20 -18q1 -3 1 -16q-1 -56 -25 -302q-30 -302 -47 -328q-12 -18 -25 -17q-5 0 -10 2q-18 9 -47 46t-33 43.5t-5 12.5t-1 22z" />
<glyph unicode="i" horiz-adv-x="1085" d="M732 185q44 454 47.5 467t23 30.5t53.5 38.5q31 19 45 20q1 0 3 -1q14 -2 20 -18q1 -3 1 -16q-1 -56 -25 -302q-30 -302 -47 -328q-12 -18 -25 -17q-5 0 -10 2q-18 9 -47 46t-33 43.5t-5 12.5t-1 22z" />
<glyph unicode="j" horiz-adv-x="1082" d="M51 150q53 578 65 594.5t29 4.5t46 -42.5t34 -36.5q8 -11 8 -25q0 -30 -19 -213q-21 -204 -26 -219t-13 -24.5t-41 -43.5t-49 -36.5t-24.5 4.5t-9.5 37zM102 47q8 28 44.5 66.5t42.5 41t15 3.5q3 1 47 1q57 0 186 -1q74 1 124 1q102 0 111 -3q13 -4 23.5 -10t39.5 -45 t29 -59.5t-28 -27.5q-17 -4 -134 -4q-67 0 -167 1q-110 -2 -182 -2q-107 0 -127 4q-26 5 -26 24q0 4 2 10zM730 185q44 454 47.5 467t23 30.5t53.5 38.5t47.5 19t20.5 -18q1 -3 1 -16q0 -56 -25 -302q-30 -303 -47 -328q-12 -17 -25 -17q-5 0 -10 2q-18 9 -47 46t-33 43.5 t-5 12.5t-1 22zM804 846q-2 3 -2 16q0 46 15 213q19 215 19.5 220t3.5 9t5 7q71 84 95 91q5 2 10 2q16 0 28 -19q3 -6 3 -35q0 -103 -41 -501q-8 -58 -26 -79q-10 -11 -21 -11q-10 0 -20 8q-23 17 -43.5 41t-25.5 38z" />
<glyph unicode="k" horiz-adv-x="1082" d="M51 150q53 578 65 594.5t29 4.5t46 -42.5t34 -36.5q8 -10 8 -25q0 -31 -19 -213q-21 -204 -26 -219t-13 -24.5t-41 -43.5t-49 -36.5t-24.5 4.5t-9.5 37zM116 854q58 517 71 516q10 7 21 7q24 0 53 -30q44 -45 44 -57q-1 -20 -21 -204q-22 -194 -35 -211.5t-57 -45.5 q-38 -25 -55 -25q-2 0 -4 1q-16 4 -17 49zM182 780q3 14 25.5 30t51.5 30q28 14 240 14h15q226 0 241 -9t28.5 -22t24.5 -29t15.5 -25.5t3 -19t-8 -17.5t-20.5 -17t-44 -19q-24 -8 -173 -7q-39 1 -87 1q-230 2 -243 7.5t-31.5 15.5t-29.5 32q-9 17 -9 29q0 3 1 6zM730 185 q44 454 47.5 467t23 30.5t53.5 38.5t47.5 19t20.5 -18q1 -3 1 -16q-1 -56 -25 -302q-30 -302 -47 -328q-12 -18 -25 -17q-5 0 -10 2q-18 9 -47 46t-33 43.5t-5 12.5t-1 22zM804 846q-1 3 -2 16q0 46 15 213q19 215 19.5 220t3.5 9t5 7q71 83 95 91q5 2 10 2q17 0 28 -19 q3 -6 3 -35q0 -103 -41 -501q-8 -59 -26 -79q-10 -11 -21 -11q-9 0 -20 8q-23 17 -43 41t-26 38z" />
<glyph unicode="l" horiz-adv-x="1082" d="M51 150q53 578 65 594q7 10 16 10q6 0 13 -5q17 -12 46 -42.5t34 -36.5q8 -10 8 -25q0 -31 -19 -213q-21 -204 -26 -219t-13 -24.5t-41 -43.5t-49 -36.5t-24.5 4.5t-9.5 37zM102 47q8 28 44.5 66.5t42.5 40.5q7 2 15 4q4 1 47 1q58 0 186 -1q74 1 124 1q101 0 111 -3 q14 -4 24 -10t39 -45t29 -59.5t-28 -27.5q-18 -4 -134 -4q-67 0 -167 1q-110 -2 -182 -2q-107 0 -127 4q-26 5 -26 24q0 4 2 10z" />
<glyph unicode="m" horiz-adv-x="1082" d="M51 150q53 578 65 594.5t29 4.5t46 -42.5t34 -36.5q8 -10 8 -25q0 -31 -19 -213q-21 -204 -26 -219t-13 -24.5t-41 -43.5t-49 -36.5t-24.5 4.5t-9.5 37zM235 1440q-2 8 -2 14q-1 8 3 14q6 10 29 11l596 1q27 0 33.5 -10t4 -27t-40.5 -61.5t-50 -48.5q-10 -3 -156 -3h-82 q-80 -1 -134 -1q-108 0 -114 5q-18 7 -50.5 47.5t-36.5 58.5zM730 185q44 454 47.5 467t23 30.5t53.5 38.5q31 19 45 19h3q14 -2 20 -18q1 -3 1 -16q-1 -56 -25 -302q-30 -302 -47 -328q-12 -18 -25 -17q-5 0 -10 2q-18 9 -47 46t-33 43.5t-5 12.5t-1 22z" />
<glyph unicode="n" horiz-adv-x="1082" d="M51 150q53 578 65 594.5t29 4.5t46 -42.5t34 -36.5q8 -10 8 -25q0 -31 -19 -213q-21 -204 -26 -219t-13 -24.5t-41 -43.5t-49 -36.5t-24.5 4.5t-9.5 37zM182 780q3 14 25.5 30t51.5 30q28 14 240 14h15q226 0 241 -9t28.5 -22t24.5 -29t15.5 -25.5t3 -19t-8 -17.5 t-20.5 -17t-44 -19q-24 -8 -173 -7q-39 1 -87 1q-230 2 -243 7.5t-31.5 15.5t-29.5 32q-9 17 -9 29q0 3 1 6zM730 185q44 454 47.5 467t23 30.5t53.5 38.5q31 19 45 19h3q14 -2 20 -18q1 -3 1 -16q-1 -56 -25 -302q-30 -302 -47 -328q-12 -18 -25 -17q-5 0 -10 2 q-18 9 -47 46t-33 43.5t-5 12.5t-1 22z" />
<glyph unicode="o" horiz-adv-x="1082" d="M51 150q53 578 65 594.5t29 4.5t46 -42.5t34 -36.5q8 -10 8 -25q0 -31 -19 -213q-21 -204 -26 -219t-13 -24.5t-41 -43.5t-49 -36.5t-24.5 4.5t-9.5 37zM102 47q8 28 44.5 66.5t42.5 40.5q7 2 15 4q4 1 47 1q58 0 186 -1q74 1 124 1q101 0 111 -3q14 -4 24 -10t39 -45 t29 -59.5t-28 -27.5q-18 -4 -134 -4q-67 0 -167 1q-110 -2 -182 -2q-107 0 -127 4q-26 5 -26 24q0 4 2 10zM182 780q3 14 25.5 30t51.5 30q28 14 240 14h15q226 0 241 -9t28.5 -22t24.5 -29t15.5 -25.5t3 -19t-8 -17.5t-20.5 -17t-44 -19q-24 -8 -173 -7q-39 1 -87 1 q-230 2 -243 7.5t-31.5 15.5t-29.5 32q-9 17 -9 29q0 3 1 6zM730 185q44 454 47.5 467t23 30.5t53.5 38.5q31 19 45 19h3q14 -2 20 -18q1 -3 1 -16q-1 -56 -25 -302q-30 -302 -47 -328q-12 -18 -25 -17q-5 0 -10 2q-18 9 -47 46t-33 43.5t-5 12.5t-1 22z" />
<glyph unicode="p" horiz-adv-x="1082" d="M51 150q53 578 65 594.5t29 4.5t46 -42.5t34 -36.5q8 -11 8 -25q0 -30 -19 -213q-21 -204 -26 -219t-13 -24.5t-41 -43.5t-49 -37h-8q-10 0 -17 5q-8 7 -9 37zM116 854q58 517 71 516q10 7 21 7q24 0 53 -30q44 -45 44 -57q0 -19 -21 -204q-21 -193 -34.5 -211t-57.5 -46 q-38 -25 -55 -25q-2 0 -4 1q-16 4 -17 49zM182 780q3 14 25.5 30t51.5 30q28 14 240 14h15q227 -1 241.5 -9.5t28 -21.5t24.5 -29t15.5 -25.5t3 -19t-8 -17.5t-20 -17t-44.5 -19q-24 -7 -173 -7q-39 0 -87 1q-229 2 -242.5 7.5t-32 15.5t-29.5 32q-9 17 -9 29q0 4 1 6z M235 1440q-2 8 -2 14q0 9 3 14q6 10 29 11l596 1q27 0 33.5 -10t4 -27t-40.5 -61.5t-50 -48.5q-10 -3 -156 -3h-82q-80 -1 -134 -1q-108 0 -114 5q-18 7 -50.5 47.5t-36.5 58.5zM804 846q-2 3 -2 16q0 46 15 213q19 215 19.5 220t3.5 9t5 7q71 84 95 91q5 2 10 2 q16 0 28 -19q3 -6 3 -35q0 -103 -41 -501q-8 -58 -26 -79q-10 -11 -21 -11q-10 0 -20 8q-23 17 -43.5 41t-25.5 38z" />
<glyph unicode="q" horiz-adv-x="1082" d="M51 854q58 517 71 516q10 7 21 7q24 0 53 -30q44 -45 44 -57q0 -19 -20 -204q-22 -193 -35.5 -211t-56.5 -46q-39 -25 -56 -25q-2 0 -4 1q-16 4 -17 49zM117 780q3 14 25.5 30t51.5 30q28 14 240 14h16q226 -1 240.5 -9.5t28 -21.5t24.5 -29t15.5 -25.5t3 -19t-8 -17.5 t-20 -17t-43.5 -19q-25 -7 -174 -7q-39 0 -86 1q-230 2 -243.5 7.5t-32 15.5t-29.5 32q-9 17 -9 29q0 4 1 6zM170 1440q-2 8 -2 14q0 9 4 14q5 10 28 11l596 1q27 0 33.5 -10t4 -27t-40.5 -61.5t-51 -48.5q-10 -3 -156 -3h-81q-80 -1 -134 -1q-108 0 -114 5 q-18 7 -50.5 47.5t-36.5 58.5zM665 185q44 454 47.5 467t23 30.5t53.5 38.5t47.5 19t20.5 -18q1 -3 1 -16q0 -56 -24 -302q-31 -303 -48 -328q-12 -17 -25 -17q-5 0 -10 2q-18 9 -47 46t-33 43.5t-5 12.5t-1 22zM738 846q-1 3 -1 16q0 46 15 213q19 215 19.5 220t3.5 9t5 7 q71 84 94 91q6 2 11 2q16 0 28 -19q3 -6 3 -35q0 -103 -41 -501q-8 -58 -26 -79q-10 -11 -21 -11q-10 0 -20 8q-23 17 -43.5 41t-26.5 38z" />
<glyph unicode="r" horiz-adv-x="1082" d="M51 150q53 578 65 594.5t29 4.5t46 -42.5t34 -36.5q8 -10 8 -25q0 -31 -19 -213q-21 -204 -26 -219t-13 -24.5t-41 -43.5q-33 -35 -49 -37q-4 -1 -8 0q-11 0 -17 5q-8 7 -9 37zM182 780q3 14 25.5 30t51.5 30q28 14 240 14h15q226 0 241 -9t28.5 -22t24.5 -29 q12 -16 16 -26q3 -7 3 -14q-1 -12 -9 -22q-6 -8 -20 -17t-44 -19q-24 -8 -173 -7q-39 1 -87 1q-230 2 -243 7.5t-31.5 15.5t-29.5 32q-9 17 -9 29q0 3 1 6z" />
<glyph unicode="s" horiz-adv-x="1082" d="M59 47q8 28 44.5 66.5t42.5 40.5t14 4q4 1 48 1q58 0 186 -1q74 1 124 1q100 0 110 -3q14 -4 24.5 -10t39.5 -45t29 -59q1 -21 -27 -28q-18 -4 -135 -4q-67 0 -167 1q-110 -2 -182 -2q-106 0 -126 4q-26 5 -27 24q0 4 2 10zM73 854q58 517 71 516q10 7 21 7q24 0 53 -30 q44 -45 44 -57q0 -20 -20 -204q-22 -194 -36 -212q-12 -17 -56 -45q-38 -25 -56 -25q-2 0 -4 1q-16 4 -17 49zM139 780q3 14 25.5 30t51.5 30q28 14 240 14h16q226 0 240.5 -9t28 -22t24.5 -29t15.5 -25.5t3 -19t-8 -17.5t-20 -17t-43.5 -19q-24 -8 -174 -7q-38 1 -86 1 q-230 2 -243.5 7.5t-32 15.5t-29.5 32q-9 17 -9 29q0 3 1 6zM192 1440q-2 8 -2 14q0 8 4 14q6 10 28 11l596 1q27 0 33.5 -10t4 -27t-40.5 -61q-39 -45 -51 -49q-10 -3 -156 -3h-81q-80 -1 -134 -1q-108 0 -114 5q-18 7 -50.5 47.5t-36.5 58.5zM687 185q44 454 47.5 467 t23 30.5t53.5 38.5q31 19 45 19h2q14 -2 21 -18q1 -3 1 -16q0 -56 -24 -302q-30 -302 -48 -328q-12 -18 -25 -17q-5 0 -10 2q-18 9 -47 46t-33 43.5t-5 12.5t-1 22z" />
<glyph unicode="t" horiz-adv-x="1082" d="M51 150q53 578 65 594.5t29 4.5t46 -42.5t34 -36.5q8 -10 8 -25q0 -31 -19 -213q-21 -204 -26 -219t-13 -24.5t-41 -43.5t-49 -36.5t-24.5 4.5t-9.5 37zM102 47q8 28 44.5 66.5t42.5 40.5q7 2 15 4q4 1 47 1q58 0 186 -1q74 1 124 1q101 0 111 -3q14 -4 24 -10t39 -45 t29 -59.5t-28 -27.5q-18 -4 -134 -4q-67 0 -167 1q-110 -2 -182 -2q-107 0 -127 4q-26 5 -26 24q0 4 2 10zM116 854q58 517 71 516q10 7 21 7q24 0 53 -30q44 -45 44 -57q-1 -20 -21 -204q-22 -194 -35 -211.5t-57 -45.5q-38 -25 -55 -25q-2 0 -4 1q-16 4 -17 49zM182 780 q3 14 25.5 30t51.5 30q28 14 240 14h15q226 0 241 -9t28.5 -22t24.5 -29q12 -16 16 -26q3 -7 3 -14q-1 -12 -9 -22q-6 -8 -20 -17t-44 -19q-24 -8 -173 -7q-39 1 -87 1q-230 2 -243 7.5t-31.5 15.5t-29.5 32q-9 17 -9 29q0 3 1 6z" />
<glyph unicode="u" horiz-adv-x="1082" d="M51 150q53 578 65 594.5t29 4.5t46 -42.5t34 -36.5q8 -10 8 -25q0 -31 -19 -213q-21 -204 -26 -219t-13 -24.5t-41 -43.5t-49 -36.5t-24.5 4.5t-9.5 37zM102 47q8 28 44.5 66.5t42.5 40.5q7 2 15 4q4 1 47 1q58 0 186 -1q74 1 124 1q101 0 111 -3q14 -4 24 -10t39 -45 t29 -59.5t-28 -27.5q-18 -4 -134 -4q-67 0 -167 1q-110 -2 -182 -2q-107 0 -127 4q-26 5 -26 24q0 4 2 10zM116 854q58 517 71 516q10 7 21 7q24 0 53 -30q44 -45 44 -57q-1 -20 -21 -204q-22 -194 -35 -211.5t-57 -45.5q-38 -25 -55 -25q-2 0 -4 1q-16 4 -17 49zM730 185 q44 454 47.5 467t23 30.5t53.5 38.5t47.5 19t20.5 -18q1 -3 1 -16q-1 -56 -25 -302q-30 -302 -47 -328q-12 -18 -25 -17q-5 0 -10 2q-18 9 -47 46t-33 43.5t-5 12.5t-1 22zM804 846q-1 3 -2 16q0 46 15 213q19 215 19.5 220t3.5 9t5 7q71 83 95 91q5 2 10 2q17 0 28 -19 q3 -6 3 -35q0 -103 -41 -501q-8 -59 -26 -79q-10 -11 -21 -11q-9 0 -20 8q-23 17 -43 41t-26 38z" />
<glyph unicode="v" horiz-adv-x="1082" d="M51 150q53 578 65 594q7 10 16 10q6 0 13 -5q17 -12 46 -42.5t34 -36.5q8 -10 8 -25q0 -31 -19 -213q-21 -204 -26 -219t-13 -24.5t-41 -43.5t-49 -36.5t-24.5 4.5t-9.5 37zM102 47q8 28 44.5 66.5t42.5 40.5q7 2 15 4q4 1 47 1q58 0 186 -1q74 1 124 1q101 0 111 -3 q14 -4 24 -10t39 -45t29 -59.5t-28 -27.5q-18 -4 -134 -4q-67 0 -167 1q-110 -2 -182 -2q-107 0 -127 4q-26 5 -26 24q0 4 2 10zM730 185q44 454 47.5 467t23 30.5t53.5 38.5q31 19 45 19h3q14 -2 20 -18q1 -3 1 -16q-1 -56 -25 -302q-30 -302 -47 -328q-12 -18 -25 -17 q-5 0 -10 2q-18 9 -47 46t-33 43.5t-5 12.5t-1 22z" />
<glyph unicode="w" horiz-adv-x="1082" d="M59 47q8 28 44.5 66.5t42.5 40.5t14 4q4 1 48 1q58 0 186 -1q74 1 124 1q100 0 110 -3q14 -4 24.5 -10t39.5 -45t29 -59q1 -21 -27 -28q-18 -4 -135 -4q-67 0 -167 1q-110 -2 -182 -2q-106 0 -126 4q-26 5 -27 24q0 4 2 10zM73 854q58 517 71 516q10 7 21 7q24 0 53 -30 q44 -45 44 -57q0 -20 -20 -204q-22 -194 -36 -212q-12 -17 -56 -45q-38 -25 -56 -25q-2 0 -4 1q-16 4 -17 49zM760 846q-1 3 -1 16q0 46 15 213q19 215 19.5 220t3.5 9t5 7q70 83 94 91q5 2 11 2q17 0 28 -19q3 -6 3 -35q0 -103 -41 -501q-8 -59 -26 -79q-10 -11 -21 -11 q-9 0 -20 8q-23 17 -43.5 41t-26.5 38z" />
<glyph unicode="x" horiz-adv-x="1082" d="M51 150q53 578 65 594.5t29 4.5t46 -42.5t34 -36.5q8 -10 8 -25q0 -31 -19 -213q-21 -204 -26 -219t-13 -24.5t-41 -43.5t-49 -36.5t-24.5 4.5t-9.5 37zM116 854q58 517 71 516q10 7 21 7q24 0 53 -30q44 -45 44 -57q-1 -20 -21 -204q-22 -194 -35 -211.5t-57 -45.5 q-38 -25 -55 -25q-2 0 -4 1q-16 4 -17 49zM182 780q3 14 25.5 30t51.5 30q28 14 240 14h15q226 0 241 -9t28.5 -22t24.5 -29t15.5 -25.5t3 -19t-8 -17.5t-20.5 -17t-44 -19q-24 -8 -173 -7q-39 1 -87 1q-230 2 -243 7.5t-31.5 15.5t-29.5 32q-9 17 -9 29q0 3 1 6zM730 185 q44 454 47.5 467t23 30.5t53.5 38.5t47.5 19t20.5 -18q1 -3 1 -16q-1 -56 -25 -302q-30 -302 -47 -328q-12 -18 -25 -17q-5 0 -10 2q-18 9 -47 46t-33 43.5t-5 12.5t-1 22zM804 846q-1 3 -2 16q0 46 15 213q19 215 19.5 220t3.5 9t5 7q71 83 95 91q5 2 10 2q17 0 28 -19 q3 -6 3 -35q0 -103 -41 -501q-8 -59 -26 -79q-10 -11 -21 -11q-9 0 -20 8q-23 17 -43 41t-26 38z" />
<glyph unicode="y" horiz-adv-x="1082" d="M59 47q8 28 44.5 66.5t42.5 41t14 3.5q4 1 48 1q57 0 186 -1q74 1 124 1q102 0 110 -3q14 -4 24.5 -10t39.5 -45t29 -59.5t-27 -27.5q-18 -4 -135 -4q-67 0 -167 1q-110 -2 -182 -2q-107 0 -126 4q-27 5 -27 24q0 4 2 10zM73 854q58 517 71 516q10 7 21 7q24 0 53 -30 q44 -45 44 -57q0 -19 -20 -204q-22 -193 -35.5 -211t-56.5 -46q-39 -25 -56 -25q-2 0 -4 1q-16 4 -17 49zM139 780q3 14 25.5 30t51.5 30q28 14 240 14h16q226 -1 240.5 -9.5t28 -21.5t24.5 -29t15.5 -25.5t3 -19t-8 -17.5t-20 -17t-43.5 -19q-25 -7 -174 -7q-39 0 -86 1 q-230 2 -243.5 7.5t-32 15.5t-29.5 32q-9 17 -9 29q0 4 1 6zM687 185q44 454 47.5 467t23 30.5t53.5 38.5t47.5 19t20.5 -18q1 -3 1 -16q0 -56 -24 -302q-31 -303 -48 -328q-12 -17 -25 -17q-5 0 -10 2q-18 9 -47 46t-33 43.5t-5 12.5t-1 22zM760 846q-1 3 -1 16 q0 46 15 213q19 215 19.5 220t3.5 9t5 7q71 84 94 91q6 2 11 2q16 0 28 -19q3 -6 3 -35q0 -103 -41 -501q-8 -58 -26 -79q-10 -11 -21 -11q-10 0 -20 8q-23 17 -43.5 41t-26.5 38z" />
<glyph unicode="z" horiz-adv-x="1082" d="M51 150q53 578 65 594.5t29 4.5t46 -42.5t34 -36.5q8 -10 8 -25q0 -31 -19 -213q-21 -204 -26 -219t-13 -24.5t-41 -43.5t-49 -36.5t-24.5 4.5t-9.5 37zM102 47q8 28 44.5 66.5t42.5 40.5q7 2 15 4q4 1 47 1q58 0 186 -1q74 1 124 1q101 0 111 -3q14 -4 24 -10t39 -45 t29 -59.5t-28 -27.5q-18 -4 -134 -4q-67 0 -167 1q-110 -2 -182 -2q-107 0 -127 4q-26 5 -26 24q0 4 2 10zM182 780q3 14 25.5 30t51.5 30q28 14 240 14h15q226 0 241 -9t28.5 -22t24.5 -29t15.5 -25.5t3 -19t-8 -17.5t-20.5 -17t-44 -19q-24 -8 -173 -7q-39 1 -87 1 q-230 2 -243 7.5t-31.5 15.5t-29.5 32q-9 17 -9 29q0 3 1 6zM235 1440q-2 8 -2 14q-1 8 3 14q6 10 29 11l596 1q27 0 33.5 -10t4 -27t-40.5 -61.5t-50 -48.5q-10 -3 -156 -3h-82q-80 -1 -134 -1q-108 0 -114 5q-18 7 -50.5 47.5t-36.5 58.5zM804 846q-1 3 -2 16q0 46 15 213 q19 215 19.5 220t3.5 9t5 7q71 83 95 91q5 2 10 2q17 0 28 -19q3 -6 3 -35q0 -103 -41 -501q-8 -59 -26 -79q-10 -11 -21 -11q-9 0 -20 8q-23 17 -43 41t-26 38z" />
<glyph unicode="{" horiz-adv-x="1082" d="M51 150q53 578 65 594.5t29 4.5t46 -42.5t34 -37t7.5 -19.5t-18.5 -217.5t-26 -219.5t-13 -24.5t-41 -43.5t-49 -36.5t-24.5 4.5t-9.5 37zM102 47q8 28 44.5 66.5t42.5 41t14.5 4t233.5 -0.5q221 2 234.5 -2t24 -10t39.5 -45t29 -59.5t-27.5 -27.5t-301.5 -3 q-276 -4 -308.5 2t-24.5 34zM116 854q58 517 71 516q31 21 74 -23t44 -55.5t-20.5 -205t-35 -211.5t-57 -46t-59.5 -24t-17 49zM235 1440.5q-4 18.5 1.5 28t28.5 10.5l596 1q27 0 33.5 -10t4 -27t-40.5 -61.5t-50.5 -48.5t-237.5 -3q-239 -4 -248 4q-18 7 -50.5 47.5 t-36.5 59z" />
<glyph unicode="|" horiz-adv-x="1082" d="M51 150q53 578 65 594.5t29 4.5t46 -42.5t34 -37t7.5 -19.5t-18.5 -217.5t-26 -219.5t-13 -24.5t-41 -43.5t-49 -36.5t-24.5 4.5t-9.5 37zM116 854q58 517 71 516q31 21 74 -23t44 -55.5t-20.5 -205t-35 -211.5t-57 -46t-59.5 -24t-17 49z" />
<glyph unicode="}" horiz-adv-x="1082" d="M59 47q8 28 44.5 66.5t42.5 41t14.5 4t233.5 -0.5q221 2 234.5 -2t24 -10t39.5 -45t29 -59.5t-27.5 -27.5t-301.5 -3q-276 -4 -308.5 2t-24.5 34zM192 1440.5q-4 18.5 1.5 28t28.5 10.5l596 1q27 0 33.5 -10t4 -27t-40.5 -61.5t-50.5 -48.5t-237.5 -3q-239 -4 -248 4 q-18 7 -50.5 47.5t-36.5 59zM687 185q44 454 47.5 467t23 30.5t53.5 38.5t47.5 19t20.5 -18t-23.5 -318.5t-47.5 -327t-35 -15.5t-47 46t-33 43.5t-5 12.5t-1 22zM760.5 846q-5.5 14 13.5 229t19.5 220t3.5 9t5 7q71 84 94.5 91.5t38.5 -17.5t-38 -536q-8 -58 -26 -78.5 t-41 -3.5t-43.5 41t-26 38z" />
<glyph unicode="~" horiz-adv-x="1082" d="M54 780.5q3 13.5 25.5 29.5t51.5 30t255.5 13.5t241 -9t28 -21.5t24.5 -29t15.5 -25.5t3 -19t-8 -17.5t-20 -17t-44 -18.5t-260 -7t-243 8t-32 15.5t-29.5 32t-8 35.5z" />
<glyph />
<glyph />
<glyph />
<glyph />
<glyph />
<glyph unicode="&#x85;" />
<glyph />
<glyph />
<glyph />
<glyph />
<glyph />
<glyph />
<glyph />
<glyph />
<glyph />
<glyph />
<glyph />
<glyph />
<glyph />
<glyph />
<glyph />
<glyph />
<glyph />
<glyph />
<glyph />
<glyph />
<glyph />
<glyph />
<glyph />
<glyph />
<glyph />
<glyph />
<glyph unicode="&#xa1;" />
<glyph unicode="&#xa2;" />
<glyph unicode="&#xa3;" />
<glyph unicode="&#xa4;" />
<glyph unicode="&#xa5;" />
<glyph unicode="&#xb4;" />
<glyph unicode="&#xa6;" />
<glyph unicode="&#xa7;" />
<glyph unicode="&#xa8;" />
<glyph unicode="&#xa9;" />
<glyph unicode="&#xaa;" />
<glyph unicode="&#xab;" />
<glyph unicode="&#xc7;" />
<glyph unicode="&#xac;" />
<glyph unicode="&#xad;" horiz-adv-x="1082" d="M54 780.5q3 13.5 25.5 29.5t51.5 30t255.5 13.5t241 -9t28 -21.5t24.5 -29t15.5 -25.5t3 -19t-8 -17.5t-20 -17t-44 -18.5t-260 -7t-243 8t-32 15.5t-29.5 32t-8 35.5z" />
<glyph unicode="&#xae;" />
<glyph unicode="&#xaf;" />
<glyph unicode="&#xf8;" />
<glyph unicode="&#xb1;" />
<glyph unicode="&#xb5;" />
<glyph unicode="&#xb7;" />
<glyph unicode="&#xe1;" />
<glyph unicode="&#xb8;" />
<glyph unicode="&#xfc;" />
<glyph unicode="&#xba;" />
<glyph unicode="&#xbc;" />
<glyph unicode="&#xbb;" />
<glyph unicode="&#xbe;" />
<glyph unicode="&#xbf;" />
<glyph unicode="&#xc0;" />
<glyph unicode="&#xc1;" />
<glyph unicode="&#xe7;" />
<glyph unicode="&#xc2;" />
<glyph unicode="&#xe5;" />
<glyph unicode="&#xc3;" />
<glyph unicode="&#xc8;" />
<glyph unicode="&#xe9;" />
<glyph unicode="&#xc9;" />
<glyph unicode="&#x2026;" />
<glyph unicode="&#xca;" />
<glyph unicode="&#xe6;" />
<glyph unicode="&#xcb;" />
<glyph unicode="&#xe8;" />
<glyph unicode="&#xcc;" />
<glyph unicode="&#xed;" />
<glyph unicode="&#xcd;" />
<glyph unicode="&#xea;" />
<glyph unicode="&#xce;" />
<glyph unicode="&#xeb;" />
<glyph unicode="&#xcf;" />
<glyph unicode="&#xec;" />
<glyph unicode="&#xd0;" />
<glyph unicode="&#x2013;" />
<glyph unicode="&#xd1;" />
<glyph unicode="&#x2014;" />
<glyph unicode="&#xd2;" />
<glyph unicode="&#xf1;" />
<glyph unicode="&#xd3;" />
<glyph unicode="&#xee;" />
<glyph unicode="&#xd4;" />
<glyph unicode="&#xef;" />
<glyph unicode="&#xd5;" />
<glyph unicode="&#x2019;" />
<glyph unicode="&#xd6;" />
<glyph unicode="&#xd8;" />
<glyph unicode="&#xd9;" />
<glyph unicode="&#xf4;" />
<glyph unicode="&#xda;" />
<glyph unicode="&#xf2;" />
<glyph unicode="&#xdb;" />
<glyph unicode="&#xf3;" />
<glyph unicode="&#xdc;" />
<glyph unicode="&#x2039;" />
<glyph unicode="&#xdd;" />
<glyph unicode="&#x203a;" />
<glyph unicode="&#xde;" />
<glyph unicode="&#xfb01;" />
<glyph unicode="&#xdf;" />
<glyph unicode="&#xfb02;" />
<glyph unicode="&#xe2;" />
<glyph unicode="&#x201a;" />
<glyph unicode="&#xe3;" />
<glyph unicode="&#x201e;" />
<glyph unicode="&#xf6;" />
<glyph unicode="&#x2c6;" />
<glyph unicode="&#xf7;" />
<glyph unicode="&#x2dc;" />
<glyph unicode="&#x152;" />
<glyph unicode="&#x153;" />
<glyph unicode="&#x178;" />
<glyph unicode="&#x2000;" horiz-adv-x="740" />
<glyph unicode="&#x2001;" horiz-adv-x="1480" />
<glyph unicode="&#x2002;" horiz-adv-x="740" />
<glyph unicode="&#x2003;" horiz-adv-x="1480" />
<glyph unicode="&#x2004;" horiz-adv-x="493" />
<glyph unicode="&#x2005;" horiz-adv-x="370" />
<glyph unicode="&#x2006;" horiz-adv-x="246" />
<glyph unicode="&#x2007;" horiz-adv-x="246" />
<glyph unicode="&#x2008;" horiz-adv-x="185" />
<glyph unicode="&#x2009;" horiz-adv-x="296" />
<glyph unicode="&#x200a;" horiz-adv-x="82" />
<glyph unicode="&#x2010;" horiz-adv-x="1082" d="M54 780.5q3 13.5 25.5 29.5t51.5 30t255.5 13.5t241 -9t28 -21.5t24.5 -29t15.5 -25.5t3 -19t-8 -17.5t-20 -17t-44 -18.5t-260 -7t-243 8t-32 15.5t-29.5 32t-8 35.5z" />
<glyph unicode="&#x2011;" horiz-adv-x="1082" d="M54 780.5q3 13.5 25.5 29.5t51.5 30t255.5 13.5t241 -9t28 -21.5t24.5 -29t15.5 -25.5t3 -19t-8 -17.5t-20 -17t-44 -18.5t-260 -7t-243 8t-32 15.5t-29.5 32t-8 35.5z" />
<glyph unicode="&#x2012;" horiz-adv-x="1082" d="M54 780.5q3 13.5 25.5 29.5t51.5 30t255.5 13.5t241 -9t28 -21.5t24.5 -29t15.5 -25.5t3 -19t-8 -17.5t-20 -17t-44 -18.5t-260 -7t-243 8t-32 15.5t-29.5 32t-8 35.5z" />
<glyph unicode="&#x2018;" />
<glyph unicode="&#x201c;" />
<glyph unicode="&#x201d;" />
<glyph unicode="&#x2022;" />
<glyph unicode="&#x202f;" horiz-adv-x="296" />
<glyph unicode="&#x205f;" horiz-adv-x="370" />
<glyph unicode="&#x20ac;" />
<glyph unicode="&#x2122;" />
</font>
</defs>
</svg>
